<svg width="153" height="132" viewBox="0 0 153 132" fill="none" xmlns="http://www.w3.org/2000/svg">
<path d="M147.055 104.709L127.425 128.041L13.4612 32.1586C11.2855 30.3289 9.56099 28.022 8.42178 25.4174L1.57551 9.76993C1.11557 8.71617 0.95698 7.55544 1.11746 6.41693C1.27795 5.27843 1.75123 4.20678 2.48453 3.32122C3.21784 2.43566 4.18249 1.77092 5.27111 1.40098C6.35974 1.03104 7.52962 0.970397 8.65066 1.2258L25.4167 5.05264C28.2865 5.70776 30.9585 7.03824 33.2107 8.93353L147.055 104.709Z" fill="white" stroke="black" stroke-width="0.75" stroke-miterlimit="10"/>
<path d="M3.83073 14.9595L14.3079 2.50703C12.4006 2.17834 10.512 1.74924 8.64997 1.22151C7.5489 0.908906 6.38012 0.927539 5.28956 1.27507C4.19901 1.6226 3.235 2.28363 2.51782 3.17567C0.85446 5.15335 0.585537 7.1969 1.57712 9.76953C2.56871 12.3422 3.83073 14.9595 3.83073 14.9595Z" fill="#76B9EB" stroke="black" stroke-width="0.75" stroke-miterlimit="10"/>
<path d="M144.622 103.229L33.3809 9.58325L13.9745 32.6358L125.215 126.282L144.622 103.229Z" fill="#61BAF0"/>
<path d="M14.1807 32.6277L33.7561 9.36035" stroke="black" stroke-width="0.75" stroke-miterlimit="10"/>
<path d="M147.055 104.709L127.425 128.041L13.4612 32.1586C11.2855 30.3289 9.56099 28.022 8.42178 25.4174L1.57551 9.76993C1.11557 8.71617 0.95698 7.55544 1.11746 6.41693C1.27795 5.27843 1.75123 4.20678 2.48453 3.32122C3.21784 2.43566 4.18249 1.77092 5.27111 1.40098C6.35974 1.03104 7.52962 0.970397 8.65066 1.2258L25.4167 5.05264C28.2865 5.70776 30.9585 7.03824 33.2107 8.93353L147.055 104.709Z" stroke="black" stroke-width="0.75" stroke-miterlimit="10"/>
<path d="M137.121 131.539C145.557 131.539 152.395 124.701 152.395 116.266C152.395 107.83 145.557 100.992 137.121 100.992C128.686 100.992 121.848 107.83 121.848 116.266C121.848 124.701 128.686 131.539 137.121 131.539Z" fill="white" stroke="black" stroke-width="0.75" stroke-miterlimit="10"/>
<path d="M137.121 122.029C140.304 122.029 142.884 119.448 142.884 116.266C142.884 113.083 140.304 110.503 137.121 110.503C133.939 110.503 131.358 113.083 131.358 116.266C131.358 119.448 133.939 122.029 137.121 122.029Z" fill="#76B9EB" stroke="black" stroke-width="0.75" stroke-miterlimit="10"/>
</svg>
