<svg width="202" height="164" viewBox="0 0 202 164" fill="none" xmlns="http://www.w3.org/2000/svg">
<path d="M22.7564 89.4508C30.7147 80.9564 47.3601 94.4855 61.9964 86.8671C78.6184 78.2201 85.6391 33.6012 123.23 19.4843C155.431 7.39312 183.3 25.2442 188.083 52.6521C192.542 78.2089 177.42 95.7525 167.077 102.881C143.947 118.825 104.41 112.57 88.5367 118.876C72.6635 125.183 70.0427 144.137 58.3302 153.991C49.9442 161.047 39.5604 161.354 35.8762 154.778C31.6534 147.239 36.7017 144.121 34.0558 139.214C29.7439 131.217 17.7797 133.107 16.189 123.991C14.8253 116.176 21.0612 115.03 22.9472 107.601C24.6727 100.817 17.4193 95.148 22.7564 89.4508Z" fill="#61BAF0"/>
<path d="M51.2505 96.3087C48.8965 102.681 48.6864 109.647 50.652 116.149C54.8378 130.829 65.9711 132.671 65.9711 132.671" stroke="black" stroke-miterlimit="10"/>
<path d="M116.059 31.8997C112.932 37.8694 111.025 44.4014 110.447 51.1154C109.869 57.8294 110.633 64.5913 112.693 71.0074C121.742 99.5062 149.361 102.074 149.361 102.074" stroke="black" stroke-miterlimit="10"/>
<path d="M139.218 58.2317C142.724 57.62 144.755 52.4825 143.756 46.7568C142.757 41.0311 139.105 36.8853 135.6 37.497C132.095 38.1086 130.063 43.2461 131.062 48.9719C132.061 54.6976 135.713 58.8433 139.218 58.2317Z" stroke="black" stroke-miterlimit="10"/>
<path d="M171.706 51.2134C175.212 50.6017 177.244 45.4642 176.244 39.7385C175.245 34.0127 171.594 29.867 168.088 30.4787C164.583 31.0903 162.551 36.2278 163.55 41.9535C164.549 47.6792 168.201 51.825 171.706 51.2134Z" stroke="black" stroke-miterlimit="10"/>
<path d="M164.047 54.5256C164.393 56.6474 163.888 58.8201 162.642 60.5721C161.396 62.3241 159.51 63.514 157.392 63.8835C155.274 64.2531 153.096 63.7724 151.33 62.546C149.565 61.3195 148.354 59.4461 147.961 57.3325" stroke="black" stroke-miterlimit="10"/>
<path d="M123.231 19.488C113.379 23.0759 101.509 12.3395 94.1418 14.8746C86.775 17.4097 89.6563 30.3388 86.0852 33.1485C82.514 35.9582 74.0153 30.6867 69.1556 36.8508C64.2958 43.0149 73.9494 52.2642 72.562 57.6874C71.2274 62.9014 65.2986 60.2744 62.5622 66.0589C59.8258 71.8434 71.7063 81.0624 64.0208 86.9258" fill="#61BAF0"/>
<path d="M154.508 109.13C134.408 116.176 138.147 131.81 130.441 134.41C122.736 137.01 121.966 127.205 117.381 127.901C112.221 128.686 112.91 134.087 106.601 133.922C99.4623 133.735 97.4169 123.671 105.028 115.91" fill="#61BAF0"/>
</svg>
