<svg width="368" height="203" viewBox="0 0 368 203" fill="none" xmlns="http://www.w3.org/2000/svg">
<path d="M39.4201 201.648C48.4081 197.448 47.7151 186.812 45.4371 178.401C47.4421 179.373 49.6352 179.897 51.8633 179.934C54.0913 179.971 56.3007 179.522 58.3371 178.617C61.4951 177.107 64.0132 174.524 65.4411 171.328C65.9427 170.265 66.8274 169.432 67.9179 168.994C69.0084 168.556 70.2241 168.547 71.3211 168.968C73.2349 169.775 75.2944 170.179 77.3712 170.155C79.448 170.131 81.4976 169.679 83.3921 168.828C86.6201 167.281 89.1781 164.616 90.5921 161.328C91.0683 160.24 91.9287 159.366 93.0089 158.873C94.0891 158.379 95.3132 158.301 96.4471 158.654C99.9861 159.819 103.834 159.61 107.226 158.069C115.598 154.154 118.551 142.78 113.826 132.669C109.101 122.558 98.4751 117.525 90.1031 121.439C86.8742 122.985 84.3158 125.65 82.9031 128.939C82.4266 130.027 81.5661 130.901 80.4858 131.394C79.4056 131.888 78.1814 131.966 77.0472 131.614C73.6218 130.444 69.8817 130.604 66.5688 132.062C63.2559 133.521 60.6122 136.171 59.1621 139.488C58.6611 140.551 57.7766 141.385 56.6861 141.823C55.5957 142.26 54.38 142.269 53.2831 141.848C51.3693 141.041 49.3098 140.637 47.2329 140.661C45.1561 140.685 43.1066 141.137 41.2121 141.989C35.0771 144.857 31.8692 151.732 32.4432 159.181C24.7782 153.225 13.6321 146.895 6.02311 152.712C-6.51789 162.298 6.85514 174.405 6.85514 174.405C6.85514 174.405 -5.85387 182.84 3.33713 192.823C10.4861 200.588 22.2372 192.561 22.2372 192.561C22.2372 192.561 29.0611 206.491 39.4201 201.648Z" fill="black"/>
<path d="M33.077 150.977L26.8447 155.205L46.371 183.99L52.6034 179.762L33.077 150.977Z" fill="white" stroke="black" stroke-miterlimit="10"/>
<path d="M90.6072 130.492C90.2663 133.904 89.2561 137.215 87.6344 140.237C86.0127 143.258 83.8114 145.931 81.1562 148.101C81.1562 148.101 92.2672 147.127 99.5022 151.727" stroke="black" stroke-miterlimit="10"/>
<path d="M63.8719 142.354C63.531 145.766 62.521 149.077 60.8995 152.099C59.278 155.12 57.0768 157.793 54.4219 159.963C54.4219 159.963 65.5319 158.99 72.7669 163.589" stroke="black" stroke-miterlimit="10"/>
<path d="M348.776 91.4949C339.587 87.7519 332.254 95.4839 327.627 102.869C326.98 100.737 325.875 98.7724 324.389 97.1118C322.904 95.4513 321.074 94.135 319.027 93.2549C315.774 91.9626 312.167 91.8687 308.851 92.9899C307.731 93.3443 306.518 93.2618 305.456 92.759C304.394 92.2561 303.562 91.3701 303.126 90.2789C302.418 88.3264 301.316 86.5406 299.888 85.0326C298.46 83.5246 296.737 82.3268 294.826 81.5139C291.499 80.1954 287.806 80.1279 284.433 81.3239C283.311 81.713 282.085 81.6751 280.99 81.2174C279.894 80.7597 279.006 79.9144 278.494 78.8429C276.945 75.454 274.178 72.7718 270.742 71.3289C262.183 67.8429 251.83 73.4009 247.617 83.7429C243.404 94.0849 246.929 105.296 255.488 108.782C258.815 110.101 262.508 110.169 265.881 108.973C267.003 108.584 268.229 108.621 269.325 109.079C270.421 109.537 271.309 110.382 271.821 111.454C273.289 114.763 275.947 117.399 279.267 118.84C282.588 120.281 286.329 120.421 289.748 119.232C290.868 118.878 292.081 118.961 293.143 119.464C294.205 119.967 295.037 120.853 295.473 121.944C296.181 123.896 297.283 125.682 298.711 127.19C300.139 128.698 301.862 129.895 303.773 130.708C310.044 133.263 317.273 130.947 322.346 125.466C323.182 135.137 326.106 147.617 335.546 149.251C351.099 151.944 350.902 133.906 350.902 133.906C350.902 133.906 364.021 137.258 366.809 123.978C369.209 112.562 353.777 110.278 353.777 110.278C353.777 110.278 359.367 95.8089 348.776 91.4949Z" fill="black"/>
<path d="M330.913 97.7773L323.556 96.1711L316.138 130.154L323.495 131.76L330.913 97.7773Z" fill="white" stroke="black" stroke-miterlimit="10"/>
<path d="M260.778 102.814C263.47 100.69 266.554 99.1169 269.855 98.1855C273.155 97.2541 276.606 96.9824 280.011 97.3857C280.011 97.3857 271.595 90.0667 269.88 81.6667" stroke="black" stroke-miterlimit="10"/>
<path d="M287.559 113.62C290.251 111.495 293.335 109.922 296.635 108.991C299.936 108.059 303.387 107.787 306.793 108.191C306.793 108.191 298.376 100.873 296.662 92.4729" stroke="black" stroke-miterlimit="10"/>
<path d="M242.524 41.7089C241.864 41.9004 241.215 42.1284 240.579 42.3919C231.54 26.1252 217.256 13.4015 200.056 6.29621C182.857 -0.809079 163.757 -1.87662 145.873 3.26774C127.989 8.4121 112.376 19.4648 101.58 34.6228C90.7845 49.7808 85.4438 68.1496 86.4293 86.7329C83.8141 87.1444 81.3163 88.1072 79.1015 89.5574C76.8867 91.0076 75.0055 92.9122 73.5827 95.1447C72.1599 97.3772 71.228 99.8867 70.8488 102.507C70.4696 105.127 70.6518 107.798 71.3832 110.342C72.1147 112.886 73.3787 115.246 75.0914 117.265C76.8042 119.283 78.9266 120.915 81.3178 122.051C83.709 123.187 86.3144 123.802 88.9613 123.854C91.6081 123.907 94.2358 123.396 96.6703 122.356C105.705 138.626 119.986 151.354 137.184 158.464C154.382 165.574 173.481 166.647 191.367 161.508C209.253 156.368 224.87 145.319 235.67 130.163C246.469 115.008 251.814 96.6398 250.833 78.0559C253.335 77.6271 255.724 76.6926 257.852 75.3096C259.981 73.9266 261.805 72.124 263.214 70.0121C264.622 67.9002 265.585 65.5234 266.044 63.0267C266.502 60.5301 266.447 57.966 265.882 55.4914C265.316 53.0168 264.252 50.6835 262.754 48.6341C261.256 46.5847 259.356 44.8622 257.17 43.572C254.984 42.2817 252.557 41.4508 250.039 41.13C247.521 40.8091 244.964 41.005 242.524 41.7059V41.7089Z" fill="#FAE4C0"/>
<path d="M185.976 80.5058C195.045 80.5058 202.397 73.1539 202.397 64.0848C202.397 55.0158 195.045 47.6638 185.976 47.6638C176.907 47.6638 169.555 55.0158 169.555 64.0848C169.555 73.1539 176.907 80.5058 185.976 80.5058Z" fill="white" stroke="black" stroke-miterlimit="10"/>
<path d="M173.301 53.6449C174.672 51.9802 176.357 50.6018 178.261 49.5885C180.164 48.5752 182.249 47.9468 184.395 47.7391C186.542 47.5315 188.708 47.7487 190.77 48.3784C192.833 49.008 194.751 50.0378 196.416 51.4088L175.536 76.7599C172.174 73.991 170.05 70.0002 169.631 65.6653C169.212 61.3303 170.532 57.0065 173.301 53.6449Z" fill="black" stroke="black" stroke-miterlimit="10"/>
<path d="M121.175 109.5C130.244 109.5 137.596 102.148 137.596 93.0787C137.596 84.0096 130.244 76.6577 121.175 76.6577C112.106 76.6577 104.754 84.0096 104.754 93.0787C104.754 102.148 112.106 109.5 121.175 109.5Z" fill="white" stroke="black" stroke-miterlimit="10"/>
<path d="M108.198 83.0198C109.52 81.3156 111.164 79.8884 113.037 78.8197C114.91 77.7511 116.975 77.0618 119.115 76.7913C121.254 76.5208 123.426 76.6744 125.506 77.2433C127.586 77.8121 129.534 78.7851 131.238 80.1067L111.111 106.056C107.671 103.387 105.431 99.4608 104.885 95.1409C104.338 90.821 105.53 86.461 108.198 83.0198Z" fill="black" stroke="black" stroke-miterlimit="10"/>
<path d="M175.392 83.6519C177.27 87.6711 177.483 92.2698 175.985 96.4456C174.487 100.621 171.4 104.036 167.395 105.945C163.39 107.854 158.794 108.103 154.606 106.637C150.419 105.171 146.981 102.11 145.041 98.1199" stroke="black" stroke-miterlimit="10"/>
<path d="M255.541 69.1758C252.831 70.1782 249.834 70.0682 247.204 68.8698C244.574 67.6713 242.525 65.4817 241.503 62.7785C240.481 60.0753 240.57 57.0777 241.749 54.4394C242.929 51.8011 245.103 49.7361 247.799 48.6948" stroke="black" stroke-miterlimit="10"/>
<path d="M82.9629 95.6059C85.7985 94.9817 88.7659 95.5095 91.2123 97.0732C93.6587 98.6368 95.3837 101.108 96.0079 103.944C96.6321 106.779 96.1043 109.747 94.5406 112.193C92.977 114.64 90.5055 116.365 87.6699 116.989" stroke="black" stroke-miterlimit="10"/>
<path d="M86.4289 86.7328C86.4289 86.7328 117.402 79.1948 127.861 54.4418C132.515 43.371 134.667 31.4086 134.161 19.4098C134.132 18.7647 134.306 18.1267 134.658 17.5851C135.009 17.0434 135.521 16.6251 136.122 16.3885C136.723 16.152 137.383 16.109 138.009 16.2655C138.636 16.4221 139.198 16.7704 139.617 17.2618C148.242 27.5038 164.675 43.2348 187.133 47.8188C221.299 54.7908 240.584 42.3918 240.584 42.3918C240.584 42.3918 216.069 -12.1452 149.484 2.49681C82.407 17.2448 86.4289 86.7328 86.4289 86.7328Z" fill="black"/>
<path d="M107.748 40.9087C107.748 40.9087 90.9857 61.7557 86.4297 86.7327" stroke="black" stroke-miterlimit="10"/>
<path d="M110.592 57.6848L86.7607 86.4068" stroke="black" stroke-miterlimit="10"/>
<path d="M186.102 30.8979C186.102 30.8979 217.162 47.9789 240.58 42.3919" stroke="black" stroke-miterlimit="10"/>
<path d="M197.115 20.2029L240.373 42.5509" stroke="black" stroke-miterlimit="10"/>
</svg>
