<svg width="426" height="387" viewBox="0 0 426 387" fill="none" xmlns="http://www.w3.org/2000/svg">
<g filter="url(#filter0_d_17_80)">
<path d="M362.525 159.34C361.275 159.344 360.025 159.418 358.783 159.56C351.128 126.597 332.531 97.2021 306.024 76.1694C279.518 55.1367 246.667 43.7077 212.83 43.747C178.993 43.7862 146.167 55.2913 119.707 76.3855C93.2462 97.4797 74.7129 126.918 67.1301 159.899C62.3528 159.309 57.5047 159.741 52.9071 161.168C48.3095 162.594 44.0675 164.982 40.4626 168.172C36.8577 171.363 33.9722 175.283 31.9974 179.674C30.0226 184.064 29.0037 188.824 29.0082 193.639C29.0128 198.453 30.0406 203.211 32.0236 207.597C34.0066 211.984 36.8995 215.899 40.5104 219.082C44.1213 222.265 48.3678 224.644 52.968 226.061C57.5683 227.479 62.4173 227.901 67.1935 227.302C74.8386 260.268 93.4279 289.669 119.929 310.71C146.43 331.751 179.279 343.189 213.117 343.159C246.954 343.129 279.784 331.632 306.251 310.544C332.717 289.456 351.258 260.021 358.849 227.042C363.437 227.545 368.079 227.107 372.493 225.755C376.906 224.403 380.997 222.165 384.517 219.178C388.036 216.191 390.909 212.518 392.962 208.383C395.014 204.248 396.201 199.738 396.452 195.129C396.702 190.52 396.01 185.908 394.418 181.575C392.826 177.242 390.367 173.28 387.192 169.93C384.017 166.58 380.192 163.912 375.951 162.091C371.71 160.269 367.142 159.331 362.526 159.335L362.525 159.34Z" fill="#FAE4C0"/>
</g>
<path d="M244.252 198.853C260.105 203.393 276.637 194.222 281.179 178.367C285.72 162.513 276.55 145.979 260.698 141.438C244.845 136.898 228.313 146.069 223.772 161.924C219.23 177.778 228.4 194.312 244.252 198.853Z" fill="white" stroke="black" stroke-miterlimit="10"/>
<path d="M235.547 145.548C238.777 143.325 242.413 141.759 246.248 140.94C250.083 140.122 254.041 140.067 257.897 140.779C261.753 141.49 265.431 142.955 268.721 145.088C272.011 147.221 274.848 149.982 277.071 153.212L227.879 187.077C223.39 180.553 221.676 172.513 223.114 164.725C224.552 156.937 229.024 150.039 235.547 145.548Z" fill="black" stroke="black" stroke-miterlimit="10"/>
<path d="M116.464 217.096C132.317 221.636 148.849 212.465 153.39 196.61C157.932 180.756 148.762 164.222 132.909 159.681C117.057 155.141 100.525 164.312 95.9835 180.167C91.4423 196.021 100.612 212.555 116.464 217.096Z" fill="white" stroke="black" stroke-miterlimit="10"/>
<path d="M107.041 164.306C110.204 161.989 113.793 160.317 117.602 159.387C121.411 158.456 125.366 158.285 129.241 158.884C133.117 159.482 136.836 160.838 140.187 162.874C143.538 164.91 146.456 167.586 148.772 170.749L100.597 206.036C95.9199 199.648 93.971 191.663 95.1792 183.838C96.3875 176.012 100.654 168.987 107.041 164.306Z" fill="black" stroke="black" stroke-miterlimit="10"/>
<path d="M224.177 199.054C225.447 207.02 223.518 215.166 218.808 221.717C214.099 228.267 206.992 232.69 199.036 234.022C191.08 235.354 182.92 233.488 176.335 228.829C169.75 224.17 165.273 217.097 163.88 209.151" stroke="black" stroke-miterlimit="10"/>
<path d="M371.524 213.875C366.284 214.27 361.101 212.577 357.104 209.166C353.108 205.754 350.622 200.9 350.189 195.663C349.757 190.425 351.412 185.229 354.795 181.208C358.178 177.186 363.013 174.665 368.247 174.194" stroke="black" stroke-miterlimit="10"/>
<path d="M56.6282 173.675C61.8972 174.003 66.8199 176.412 70.3131 180.37C73.8064 184.329 75.5842 189.513 75.2554 194.783C74.9266 200.052 72.5181 204.975 68.5599 208.469C64.6016 211.963 59.4177 213.742 54.1487 213.413" stroke="black" stroke-miterlimit="10"/>
<path d="M67.1294 159.898C67.1294 159.898 125.044 162.228 155.721 124.191C169.4 107.168 179.15 87.3322 184.275 66.1028C184.548 64.9607 185.171 63.9324 186.057 63.1615C186.943 62.3907 188.047 61.9157 189.216 61.803C190.385 61.6903 191.56 61.9454 192.576 62.5328C193.593 63.1202 194.401 64.0104 194.887 65.0793C204.835 87.3026 225.682 123.031 262.643 142.289C318.873 171.583 358.791 159.563 358.791 159.563C358.791 159.563 343.248 51.9475 219.528 44.2074C94.8943 36.4062 67.1294 159.898 67.1294 159.898Z" fill="black"/>
<path d="M127.34 90.4626C127.34 90.4626 87.6016 118.515 67.131 159.899" stroke="black" stroke-miterlimit="10"/>
<path d="M123.911 121.214L67.8728 159.495" stroke="black" stroke-miterlimit="10"/>
<path d="M269.313 112.191C269.313 112.191 315.052 157.603 358.784 159.561" stroke="black" stroke-miterlimit="10"/>
<path d="M293.92 99.0085L358.343 159.735" stroke="black" stroke-miterlimit="10"/>
<defs>
<filter id="filter0_d_17_80" x="25.0083" y="43.7468" width="375.493" height="307.412" filterUnits="userSpaceOnUse" color-interpolation-filters="sRGB">
<feFlood flood-opacity="0" result="BackgroundImageFix"/>
<feColorMatrix in="SourceAlpha" type="matrix" values="0 0 0 0 0 0 0 0 0 0 0 0 0 0 0 0 0 0 127 0" result="hardAlpha"/>
<feOffset dy="4"/>
<feGaussianBlur stdDeviation="2"/>
<feComposite in2="hardAlpha" operator="out"/>
<feColorMatrix type="matrix" values="0 0 0 0 0 0 0 0 0 0 0 0 0 0 0 0 0 0 0.25 0"/>
<feBlend mode="normal" in2="BackgroundImageFix" result="effect1_dropShadow_17_80"/>
<feBlend mode="normal" in="SourceGraphic" in2="effect1_dropShadow_17_80" result="shape"/>
</filter>
</defs>
</svg>
