<svg width="245" height="204" viewBox="0 0 245 204" fill="none" xmlns="http://www.w3.org/2000/svg">
<path d="M69.4173 163.256C87.2311 160.414 91.3455 141.473 91.5753 125.629C94.593 128.333 98.1645 130.345 102.04 131.526C105.916 132.707 110.003 133.027 114.016 132.465C120.292 131.407 125.987 128.151 130.084 123.279C131.492 121.672 133.456 120.658 135.582 120.439C137.707 120.22 139.837 120.812 141.543 122.097C144.484 124.466 147.882 126.203 151.524 127.201C155.167 128.199 158.975 128.435 162.713 127.896C169.13 126.808 174.936 123.43 179.054 118.389C180.431 116.726 182.373 115.629 184.508 115.307C186.643 114.985 188.822 115.462 190.627 116.646C196.23 120.455 203.061 122.017 209.762 121.02C226.356 118.368 237.213 99.9622 234.017 79.9206C230.821 59.8789 214.767 45.7601 198.173 48.4109C191.755 49.4966 185.949 52.8745 181.832 57.9175C180.455 59.5807 178.513 60.6781 176.377 60.9999C174.242 61.3217 172.063 60.8454 170.257 59.662C164.855 55.9014 158.237 54.3086 151.716 55.1997C145.195 56.0909 139.247 59.4008 135.051 64.4729C133.643 66.0801 131.68 67.0952 129.554 67.3145C127.429 67.5338 125.3 66.941 123.593 65.6551C120.652 63.2861 117.254 61.5488 113.612 60.5514C109.97 59.554 106.161 59.3179 102.423 59.858C90.263 61.8002 81.213 72.2129 78.4864 85.5226C68.0706 71.2727 51.7572 54.6261 35.5442 60.9858C8.82279 71.4651 26.1361 99.3259 26.1361 99.3259C26.1361 99.3259 -0.30259 107.709 10.7642 129.763C19.3722 146.917 43.9321 138.768 43.9321 138.768C43.9321 138.768 48.8849 166.536 69.4173 163.256Z" fill="black"/>
<path d="M83.7023 71.4986L70.6914 75.769L90.4092 135.867L103.42 131.597L83.7023 71.4986Z" fill="white" stroke="black" stroke-miterlimit="10"/>
<path d="M194.522 64.4894C192.217 70.2839 188.793 75.5672 184.445 80.0375C180.098 84.5077 174.912 88.0771 169.184 90.5415C169.184 90.5415 189.093 94.4017 199.437 106.066" stroke="black" stroke-miterlimit="10"/>
<path d="M141.849 71.841C139.545 77.6353 136.121 82.9187 131.774 87.389C127.426 91.8593 122.241 95.4288 116.513 97.8936C116.513 97.8936 136.42 101.755 146.764 113.417" stroke="black" stroke-miterlimit="10"/>
</svg>
