<svg width="252" height="201" viewBox="0 0 252 201" fill="none" xmlns="http://www.w3.org/2000/svg">
<path d="M209.321 89.5731C195.133 78.4289 178.443 88.2745 166.657 98.8683C166.593 94.8174 165.645 90.8293 163.88 87.1827C162.115 83.5361 159.576 80.3188 156.439 77.7554C151.399 73.8674 145.142 71.8974 138.784 72.1973C136.648 72.2561 134.57 71.5046 132.965 70.0938C131.361 68.683 130.35 66.7174 130.134 64.5916C129.875 60.8239 128.843 57.1502 127.102 53.799C125.361 50.4479 122.949 47.4911 120.015 45.1131C114.86 41.1422 108.439 39.1756 101.944 39.5775C99.788 39.6961 97.6643 39.0161 95.9784 37.6674C94.2925 36.3188 93.1626 34.396 92.8048 32.2667C91.7936 25.5667 88.2998 19.4921 83.0172 15.2496C69.8018 4.8701 48.922 9.40312 36.3792 25.3736C23.8364 41.3441 24.3842 62.708 37.5995 73.0874C42.7545 77.0597 49.1751 79.0272 55.6705 78.6249C57.8266 78.5059 59.9509 79.1858 61.6372 80.5346C63.3235 81.8834 64.4535 83.8064 64.8112 85.9361C65.7197 92.4556 69.0454 98.3952 74.1285 102.577C79.2116 106.758 85.6807 108.875 92.2523 108.509C94.3879 108.451 96.4663 109.203 98.0705 110.614C99.6746 112.025 100.686 113.991 100.901 116.117C101.161 119.884 102.193 123.558 103.934 126.909C105.675 130.26 108.088 133.216 111.021 135.593C120.703 143.2 134.499 142.77 146.111 135.728C142.73 153.054 141.592 176.335 157.274 183.918C183.112 196.413 191.8 164.78 191.8 164.78C191.8 164.78 213.053 177.209 224.576 155.388C234.488 136.633 208.657 124.913 208.657 124.913C208.657 124.913 225.673 102.417 209.321 89.5731Z" fill="black"/>
<path d="M174.949 91.612L162.893 85.1204L132.909 140.815L144.966 147.306L174.949 91.612Z" fill="white" stroke="black" stroke-miterlimit="10"/>
<path d="M49.8348 65.3026C55.6038 62.937 61.7825 61.7316 68.0174 61.7557C74.2523 61.7798 80.4213 63.0327 86.1716 65.4428C86.1716 65.4428 75.1255 48.4341 76.334 32.8906" stroke="black" stroke-miterlimit="10"/>
<path d="M91.2352 97.6021C97.0044 95.2359 103.183 94.0303 109.419 94.0541C115.654 94.078 121.824 95.3308 127.574 97.741C127.574 97.741 116.526 80.7336 117.736 65.1907" stroke="black" stroke-miterlimit="10"/>
</svg>
