<svg width="409" height="522" viewBox="0 0 409 522" fill="none" xmlns="http://www.w3.org/2000/svg">
<path d="M297.692 69.4564L271.894 0L0 100.559L96.0018 358.825L157.617 335.939C157.617 335.939 143.87 248.686 211.81 223.471C252.854 208.236 299.257 225.035 326.519 298.383C355.147 375.391 340.533 427.716 289.537 446.643C243.5 463.741 201.657 430.31 193.601 408.655L123.997 434.402C143.404 486.694 215.039 546.77 310.408 511.376C417.861 471.459 425.251 369.004 390.299 274.666C361.571 197.359 294.197 122.613 190.572 161.034C161.945 171.678 132.652 199.055 125.362 225.534L95.1363 144.169L297.692 69.4564Z" fill="#FFCBF8"/>
</svg>
