<svg width="169" height="136" viewBox="0 0 169 136" fill="none" xmlns="http://www.w3.org/2000/svg">
<path d="M153.755 14.0654C161.737 25.0908 160.054 39.9275 160.054 39.9275C160.054 39.9275 145.431 36.8909 137.45 25.8621C129.469 14.8333 131.151 0 131.151 0C131.151 0 145.774 3.0388 153.755 14.0654Z" fill="#87C783"/>
<path d="M108.094 48.2237C100.347 59.4147 85.7912 62.7597 85.7912 62.7597C85.7912 62.7597 83.796 47.9582 91.5421 36.7661C99.2883 25.5739 113.845 22.23 113.845 22.23C113.845 22.23 115.841 37.0338 108.094 48.2237Z" fill="#87C783"/>
<path d="M119.13 82.0556C119.161 92.3777 111.556 100.772 111.556 100.772C111.556 100.772 103.897 92.4288 103.865 82.1066C103.834 71.7845 111.438 63.3906 111.438 63.3906C111.438 63.3906 119.097 71.7345 119.13 82.0556Z" fill="#87C783"/>
<path d="M63.713 24.5949C71.1836 31.7172 71.973 43.0148 71.973 43.0148C71.973 43.0148 60.6504 42.7653 53.1799 35.6419C45.7094 28.5184 44.9199 17.2219 44.9199 17.2219C44.9199 17.2219 56.2437 17.4726 63.713 24.5949Z" fill="#87C783"/>
<path d="M148.86 74.5793C138.856 72.0373 132.626 62.5795 132.626 62.5795C132.626 62.5795 142.615 57.2483 152.619 59.7846C162.624 62.3209 168.852 71.7844 168.852 71.7844C168.852 71.7844 158.864 77.1201 148.86 74.5793Z" fill="#87C783"/>
<path d="M16.2342 58.2271C6.2296 55.6851 0 46.2284 0 46.2284C0 46.2284 9.98864 40.8972 19.9932 43.4335C29.9977 45.9698 36.2262 55.4333 36.2262 55.4333C36.2262 55.4333 26.2376 60.7691 16.2342 58.2271Z" fill="#87C783"/>
<path d="M94.4752 115.466C100.43 123.896 99.0238 135.134 99.0238 135.134C99.0238 135.134 87.9621 132.703 82.0093 124.272C76.0564 115.841 77.4607 104.603 77.4607 104.603C77.4607 104.603 88.5213 107.035 94.4752 115.466Z" fill="#87C783"/>
<path d="M68.6848 85.6544C70.0017 99.5303 60.8093 111.751 60.8093 111.751C60.8093 111.751 49.4822 101.477 48.1652 87.602C46.8483 73.7272 56.0407 61.5051 56.0407 61.5051C56.0407 61.5051 67.3679 71.7796 68.6848 85.6544Z" fill="#87C783"/>
</svg>
