<svg width="317" height="188" viewBox="0 0 317 188" fill="none" xmlns="http://www.w3.org/2000/svg">
<path d="M297.48 148.991C298.939 141.677 298.161 134.092 295.248 127.226C292.335 120.36 287.421 114.531 281.147 110.498C274.873 106.465 267.53 104.415 260.074 104.616C252.618 104.816 245.395 107.258 239.347 111.623C238.388 112.317 237.284 112.787 236.119 112.997C234.953 113.207 233.754 113.152 232.613 112.835C231.471 112.519 230.416 111.949 229.525 111.169C228.633 110.389 227.929 109.418 227.465 108.328C225.253 103.247 221.931 98.7256 217.743 95.0961C213.555 91.4666 208.608 88.8209 203.264 87.3533C197.92 85.8857 192.316 85.6334 186.862 86.615C181.408 87.5965 176.243 89.787 171.746 93.0256C170.786 93.7248 169.682 94.1988 168.514 94.4123C167.346 94.6259 166.145 94.5735 165.001 94.2591C163.856 93.9448 162.797 93.3764 161.902 92.5964C161.007 91.8164 160.299 90.8447 159.832 89.7536C157.62 84.6725 154.298 80.1513 150.11 76.5218C145.923 72.8923 140.975 70.2466 135.631 68.779C130.288 67.3114 124.683 67.0591 119.229 68.0407C113.775 69.0222 108.61 71.2127 104.113 74.4513C103.157 75.1508 102.056 75.626 100.891 75.8417C99.726 76.0573 98.5275 76.0078 97.3845 75.6969C96.2414 75.3859 95.1831 74.8215 94.288 74.0456C93.3929 73.2696 92.6841 72.302 92.2142 71.2146C89.4838 64.9368 85.0731 59.5347 79.4683 55.6037L88.4604 42.4443C90.2754 42.812 92.1617 42.5371 93.7963 41.6667C95.4308 40.7963 96.7118 39.3846 97.4198 37.6734C98.1278 35.9623 98.2187 34.0582 97.677 32.2874C97.1352 30.5165 95.9945 28.9892 94.4503 27.9671C92.9061 26.9449 91.0545 26.4916 89.2128 26.6847C87.371 26.8778 85.6538 27.7054 84.3552 29.0257C83.0566 30.3459 82.2576 32.0767 82.095 33.9214C81.9323 35.7661 82.4163 37.6099 83.4639 39.137L74.2915 52.5601C71.4471 51.1942 68.4419 50.1922 65.3469 49.5779C64.3197 49.3725 63.2902 49.2204 62.2623 49.104L61.2426 33.0343C62.917 32.257 64.2692 30.9219 65.0676 29.2575C65.866 27.5932 66.0611 25.703 65.6193 23.9107C65.1776 22.1183 64.1266 20.5352 62.6463 19.4325C61.1659 18.3297 59.3482 17.7757 57.5044 17.8655C55.6607 17.9553 53.9054 18.6832 52.5392 19.9246C51.173 21.166 50.2808 22.8437 50.0153 24.6705C49.7498 26.4973 50.1276 28.3596 51.084 29.9385C52.0403 31.5174 53.5158 32.7148 55.2578 33.3257L56.2488 48.9334C50.4851 49.2305 44.87 50.8673 39.8495 53.7136C34.8289 56.56 30.541 60.5377 27.3262 65.3308C24.1115 70.1239 22.0584 75.6004 21.3301 81.3256C20.6017 87.0508 21.2181 92.8669 23.1303 98.3123C25.0425 103.758 28.1978 108.682 32.3458 112.695C36.4937 116.708 41.5201 119.698 47.0258 121.429C52.5315 123.16 58.3648 123.583 64.0628 122.666C69.7607 121.748 75.1663 119.515 79.8503 116.143C80.8096 115.444 81.9141 114.971 83.0817 114.757C84.2493 114.544 85.45 114.596 86.5946 114.91C87.7392 115.225 88.7982 115.793 89.693 116.573C90.5878 117.353 91.2954 118.324 91.7632 119.415C93.9753 124.496 97.2972 129.017 101.485 132.647C105.673 136.276 110.62 138.922 115.964 140.389C121.307 141.857 126.912 142.109 132.366 141.128C137.82 140.146 142.985 137.956 147.482 134.718C148.441 134.018 149.546 133.544 150.714 133.331C151.882 133.117 153.082 133.17 154.227 133.484C155.372 133.798 156.431 134.367 157.326 135.147C158.221 135.927 158.928 136.898 159.396 137.989C161.608 143.07 164.93 147.591 169.117 151.221C173.305 154.85 178.252 157.496 183.596 158.963C188.94 160.431 194.544 160.683 199.998 159.702C205.452 158.72 210.617 156.53 215.114 153.292C216.073 152.592 217.178 152.118 218.346 151.905C219.513 151.691 220.714 151.744 221.859 152.058C223.004 152.372 224.063 152.941 224.958 153.721C225.852 154.501 226.56 155.472 227.028 156.564C230.185 163.812 235.575 169.864 242.411 173.837C249.247 177.81 257.173 179.496 265.035 178.651C272.896 177.806 280.282 174.473 286.118 169.139C291.954 163.804 295.934 156.745 297.479 148.991L297.48 148.991Z" fill="#72CA7C"/>
<path d="M43.8954 59.8674C43.3579 61.8247 42.4402 63.657 41.1947 65.2597C39.9491 66.8624 38.4 68.2041 36.6359 69.208C34.8718 70.212 32.9272 70.8587 30.9131 71.1112C28.8991 71.3636 26.8551 71.2168 24.8978 70.6793" fill="#87C783"/>
<path d="M43.8954 59.8674C43.3579 61.8247 42.4402 63.657 41.1947 65.2597C39.9491 66.8624 38.4 68.2041 36.6359 69.208C34.8718 70.212 32.9272 70.8587 30.9131 71.1112C28.8991 71.3636 26.8551 71.2168 24.8978 70.6793" stroke="black" stroke-miterlimit="10"/>
<path d="M82.9297 75.2062C86.1272 76.9488 89.7262 77.8215 93.3668 77.7369C97.0074 77.6522 100.562 76.6133 103.675 74.724" stroke="black" stroke-miterlimit="10"/>
<path d="M150.575 93.7841C153.773 95.5267 157.372 96.3994 161.012 96.3147C164.653 96.2301 168.207 95.1912 171.321 93.3018" stroke="black" stroke-miterlimit="10"/>
<path d="M218.222 112.362C221.419 114.105 225.018 114.977 228.659 114.893C232.299 114.808 235.854 113.769 238.967 111.88" stroke="black" stroke-miterlimit="10"/>
<path d="M237.153 151.998C233.955 150.255 230.356 149.382 226.716 149.467C223.075 149.552 219.521 150.591 216.407 152.48" stroke="black" stroke-miterlimit="10"/>
<path d="M169.506 133.42C166.309 131.678 162.71 130.805 159.069 130.89C155.428 130.974 151.874 132.013 148.76 133.902" stroke="black" stroke-miterlimit="10"/>
<path d="M101.86 114.842C98.6624 113.099 95.0634 112.226 91.4228 112.311C87.7822 112.395 84.2276 113.434 81.1145 115.324" stroke="black" stroke-miterlimit="10"/>
<path d="M33.8245 9.66431C36.0229 10.2681 38.2945 8.97532 38.8983 6.77689C39.502 4.57846 38.2093 2.30684 36.0109 1.70308C33.8125 1.09931 31.5408 2.39203 30.9371 4.59047C30.3333 6.7889 31.626 9.06055 33.8245 9.66431Z" fill="#72CA7C"/>
<path d="M18.5579 56.5586C20.7563 57.1623 23.0279 55.8696 23.6317 53.6712C24.2354 51.4727 22.9427 49.2011 20.7443 48.5974C18.5459 47.9936 16.2742 49.2863 15.6705 51.4848C15.0667 53.6832 16.3594 55.9548 18.5579 56.5586Z" fill="#72CA7C"/>
</svg>
