<svg width="275" height="36" viewBox="0 0 275 36" fill="none" xmlns="http://www.w3.org/2000/svg">
<path d="M15.5878 35.706C25.3425 35.657 31.3717 28.7414 31.3717 17.706C31.3717 6.91573 25.2444 0.000169911 15.5878 0.000169911C7.40177 0.0492158 1.76466 4.56149 0.441165 12.0166L5.93122 12.9975C6.76453 8.23998 10.1468 5.64052 15.5878 5.59147C21.0289 5.59147 24.5582 8.63235 25.4895 14.2727H9.31348V19.864H25.6856C25.0484 26.5343 21.5191 30.0657 15.5878 30.1147C9.85269 30.1147 6.27435 27.0248 5.49005 21.4825L0 22.2673C1.0784 30.5561 7.05864 35.706 15.5878 35.706Z" fill="black"/>
<path d="M38.2239 35.3076H43.8028V30.8571L50.8988 21.0659L61.2246 35.3076H68.1737L54.3733 16.2692L65.58 0.692307H58.6798L43.8028 21.2637V0.692307H38.2239V35.3076Z" fill="black"/>
<path d="M84.9972 36C95.323 36 101.881 28.978 101.881 17.9505C101.832 6.97252 95.3719 0.0494498 84.9972 0C74.8182 0 68.1627 7.07142 68.1627 17.9505C68.1137 28.9285 74.6224 35.9505 84.9972 36ZM84.9972 30.3626C77.7544 30.3131 73.6926 25.8626 73.7415 17.9505C73.7415 10.1374 77.9012 5.63736 84.9972 5.63736C92.2399 5.68681 96.2528 10.0384 96.3017 17.9505C96.3017 25.9121 92.191 30.3626 84.9972 30.3626Z" fill="black"/>
<path d="M107.292 35.3733H138.727V0.757968H133.149V29.7359H125.799V0.807418H120.22V29.7359H112.871V0.757968H107.292V35.3733Z" fill="black"/>
<path d="M145.515 35.3077H151.094V30.8571L158.19 21.066L168.516 35.3077H175.465L161.665 16.2693L172.871 0.692358H165.971L151.094 21.2638V0.692358H145.515V35.3077Z" fill="black"/>
<path d="M192.289 36C202.614 36 209.172 28.978 209.172 17.9506C209.123 6.97257 202.663 0.0495013 192.289 5.14882e-05C182.11 5.14882e-05 175.454 7.07147 175.454 17.9506C175.405 28.9286 181.914 35.9506 192.289 36ZM192.289 30.3626C185.046 30.3132 180.984 25.8627 181.033 17.9506C181.033 10.1374 185.193 5.63741 192.289 5.63741C199.531 5.68686 203.544 10.0385 203.593 17.9506C203.593 25.9121 199.482 30.3626 192.289 30.3626Z" fill="black"/>
<path d="M210.364 34.8631H210.511C219.869 34.8631 224.18 29.2672 224.18 17.9268V5.64546H233.832V34.665H239.417V1.02976e-05H218.595V17.7287C218.595 26.1473 216.488 29.0196 210.511 29.0196H210.364V34.8631Z" fill="black"/>
<path d="M242.517 34.665H248.445L253.002 21.3933H264.221L269.121 34.665H275L262.36 1.02976e-05H254.521L242.517 34.665ZM254.962 15.7478L258.44 5.64546L262.164 15.7478H254.962Z" fill="black"/>
</svg>
