<svg width="406" height="54" viewBox="0 0 406 54" fill="none" xmlns="http://www.w3.org/2000/svg">
<path d="M23.0133 52.9083C37.4147 52.8356 46.3161 42.5883 46.3161 26.2363C46.3161 10.2476 37.27 0.00025177 23.0133 0.00025177C10.9277 0.0729267 2.60528 6.75911 0.65132 17.8058L8.75664 19.2594C9.98691 12.2098 14.9804 8.35798 23.0133 8.28531C31.0463 8.28531 36.2568 12.7912 37.6318 21.1489H13.7501V29.434H37.9213C36.9805 39.3179 31.77 44.5506 23.0133 44.6233C14.5462 44.6233 9.26322 40.0447 8.10532 31.8323L0 32.9951C1.59212 45.2773 10.4211 52.9083 23.0133 52.9083Z" fill="black"/>
<path d="M56.4324 52.318H64.6689V45.7233L75.1451 31.2149L90.3897 52.318H100.649L80.2748 24.1073L96.8199 1.02584H86.6328L64.6689 31.508V1.02584H56.4324V52.318Z" fill="black"/>
<path d="M125.487 53.3438C140.731 53.3438 150.413 42.9389 150.413 26.5986C150.341 10.3317 140.804 0.0732736 125.487 0C110.459 0 100.633 10.4783 100.633 26.5986C100.561 42.8656 110.17 53.2706 125.487 53.3438ZM125.487 44.9906C114.794 44.9173 108.797 38.3226 108.869 26.5986C108.869 15.0213 115.011 8.3533 125.487 8.3533C136.18 8.42657 142.104 14.8747 142.176 26.5986C142.176 38.3958 136.107 44.9906 125.487 44.9906Z" fill="black"/>
<path d="M158.403 52.4153H204.812V1.12314H196.576V44.062H185.726V1.19641H177.489V44.062H166.639V1.12314H158.403V52.4153Z" fill="black"/>
<path d="M214.834 52.3181H223.07V45.7234L233.546 31.215L248.791 52.3181H259.05L238.676 24.1074L255.221 1.02592H245.034L223.07 31.5081V1.02592H214.834V52.3181Z" fill="black"/>
<path d="M283.888 53.3439C299.133 53.3439 308.814 42.9389 308.814 26.5987C308.742 10.3318 299.205 0.0733499 283.888 7.62939e-05C268.86 7.62939e-05 259.034 10.4783 259.034 26.5987C258.962 42.8657 268.571 53.2706 283.888 53.3439ZM283.888 44.9906C273.195 44.9174 267.198 38.3226 267.271 26.5987C267.271 15.0214 273.412 8.35337 283.888 8.35337C294.581 8.42665 300.505 14.8748 300.578 26.5987C300.578 38.3959 294.509 44.9906 283.888 44.9906Z" fill="black"/>
<path d="M310.574 51.6593H310.791C324.606 51.6593 330.971 43.3674 330.971 26.5635V8.3653H345.221V51.3658H353.467V1.52588e-05H322.726V26.2699C322.726 38.7445 319.615 43.0005 310.791 43.0005H310.574V51.6593Z" fill="black"/>
<path d="M358.044 51.3658H366.796L373.523 31.7H390.087L397.32 51.3658H406L387.338 1.52588e-05H375.765L358.044 51.3658ZM376.416 23.3348L381.552 8.3653L387.049 23.3348H376.416Z" fill="black"/>
</svg>
