<svg width="714" height="519" viewBox="0 0 714 519" fill="none" xmlns="http://www.w3.org/2000/svg">
<path d="M55.1259 106.518C55.1259 106.518 93.8922 17.0921 197.574 24.7876C307.522 33.0447 352.115 138.42 347.938 198.04C344.401 248.527 306.123 273.382 260.968 269.981C251.138 269.309 241.532 266.705 232.718 262.324C223.905 257.942 216.063 251.873 209.658 244.475C203.252 237.077 198.413 228.5 195.428 219.253C192.442 210.006 191.37 200.277 192.276 190.642C197.075 122.668 290.602 77.5503 386.028 111.417C485.812 146.779 520.125 245.926 517.643 318.39C515.398 386.207 471.675 430.606 407.561 420.535C339.658 409.796 319.038 334.226 351.401 281.63C399.374 203.635 521.713 215.791 588.641 268.583C683.2 343.611 634.289 451.476 634.289 451.476" stroke="black" stroke-width="0.5" stroke-miterlimit="10"/>
<path d="M622.282 511.666C640.838 515.26 658.741 503.405 662.269 485.187C665.798 466.97 653.616 449.288 635.06 445.694C616.504 442.1 598.602 453.955 595.073 472.173C591.545 490.391 603.727 508.073 622.282 511.666Z" fill="#FFE576"/>
</svg>
