<svg width="378" height="350" viewBox="0 0 378 350" fill="none" xmlns="http://www.w3.org/2000/svg">
<path d="M299.271 70.7248C298.237 71.2357 297.232 71.8032 296.26 72.4246C276.554 48.2277 249.229 31.4229 218.744 24.7516C188.259 18.0804 156.413 21.9365 128.401 35.6908C100.389 49.4452 77.8647 72.286 64.5026 100.487C51.1404 128.688 47.7291 160.585 54.8251 190.974C53.6531 191.381 52.506 191.856 51.3897 192.397C43.9338 196.057 38.2372 202.529 35.5531 210.389C32.869 218.25 33.4173 226.854 37.0774 234.31C40.7375 241.766 47.2094 247.463 55.0696 250.147C62.9298 252.831 71.5343 252.282 78.9902 248.622C80.0994 248.069 81.1752 247.452 82.2124 246.774C101.914 270.971 129.234 287.779 159.715 294.456C190.196 301.132 222.04 297.284 250.053 283.538C278.066 269.792 300.595 246.96 313.965 218.766C327.335 190.571 330.758 158.679 323.674 128.29C327.682 126.848 331.353 124.604 334.464 121.695C337.574 118.786 340.058 115.273 341.765 111.37C343.471 107.468 344.363 103.259 344.387 99C344.41 94.7412 343.565 90.5223 341.902 86.6014C340.239 82.6805 337.794 79.14 334.716 76.1965C331.638 73.253 327.992 70.9684 324.001 69.4824C320.009 67.9964 315.757 67.3402 311.503 67.5541C307.25 67.7679 303.085 68.8473 299.263 70.7261L299.271 70.7248Z" fill="#FAE4C0"/>
<path d="M226.551 134.72C240.035 141.753 256.666 136.523 263.699 123.04C270.732 109.556 265.502 92.9243 252.018 85.8918C238.535 78.8592 221.903 84.0888 214.87 97.5724C207.838 111.056 213.068 127.688 226.551 134.72Z" fill="white" stroke="black" stroke-miterlimit="10"/>
<path d="M253.629 133.81C250.543 135.695 247.115 136.953 243.543 137.513C239.97 138.073 236.322 137.924 232.807 137.074C229.292 136.224 225.979 134.691 223.057 132.56C220.134 130.43 217.66 127.745 215.776 124.658L262.788 95.9648C266.591 102.198 267.763 109.687 266.045 116.784C264.328 123.881 259.862 130.006 253.629 133.81Z" fill="black" stroke="black" stroke-miterlimit="10"/>
<path d="M116.118 179.165C129.601 186.197 146.233 180.967 153.265 167.484C160.298 154 155.068 137.369 141.585 130.336C128.101 123.304 111.469 128.533 104.437 142.017C97.4043 155.5 102.634 172.132 116.118 179.165Z" fill="white" stroke="black" stroke-miterlimit="10"/>
<path d="M142.575 178.621C136.244 182.26 128.726 183.235 121.676 181.331C114.625 179.427 108.62 174.801 104.981 168.469L152.722 141.025C154.525 144.159 155.692 147.619 156.158 151.205C156.623 154.791 156.378 158.433 155.436 161.924C154.493 165.416 152.873 168.687 150.666 171.552C148.459 174.417 145.71 176.819 142.575 178.621Z" fill="black" stroke="black" stroke-miterlimit="10"/>
<path d="M220.302 142.416C221.767 145.816 222.547 149.471 222.6 153.173C222.652 156.875 221.974 160.551 220.606 163.991C219.238 167.431 217.205 170.568 214.624 173.222C212.044 175.877 208.965 177.997 205.565 179.462C202.165 180.927 198.51 181.707 194.808 181.76C191.106 181.812 187.43 181.134 183.99 179.766C180.55 178.398 177.414 176.365 174.759 173.784C172.105 171.204 169.984 168.125 168.52 164.725" stroke="black" stroke-miterlimit="10"/>
<path d="M327.94 111.659C323.598 113.807 318.584 114.151 313.989 112.618C309.395 111.085 305.592 107.798 303.41 103.474C301.228 99.1496 300.844 94.1382 302.341 89.5316C303.837 84.925 307.094 81.0965 311.401 78.8804" stroke="black" stroke-miterlimit="10"/>
<path d="M257.186 147.568C255.411 143.064 255.486 138.041 257.397 133.592C259.308 129.144 262.898 125.63 267.387 123.816C271.876 122.002 276.9 122.035 281.365 123.907C285.83 125.78 289.374 129.34 291.226 133.813" stroke="black" stroke-miterlimit="10"/>
<path d="M99.1203 205.614C98.2111 203.378 97.7519 200.984 97.7689 198.57C97.786 196.156 98.2789 193.769 99.2197 191.546C100.16 189.323 101.53 187.307 103.251 185.614C104.972 183.921 107.01 182.584 109.248 181.679C111.486 180.775 113.881 180.32 116.295 180.343C118.709 180.365 121.095 180.863 123.316 181.808C125.537 182.754 127.55 184.128 129.24 185.852C130.929 187.577 132.262 189.617 133.162 191.857" stroke="black" stroke-miterlimit="10"/>
<path d="M53.4629 205.382C57.8685 203.31 62.9168 203.073 67.4973 204.723C72.0778 206.373 75.8152 209.774 77.8875 214.18C79.9597 218.586 80.1971 223.634 78.5472 228.214C76.8973 232.795 73.4954 236.532 69.0898 238.605" stroke="black" stroke-miterlimit="10"/>
<path d="M54.8233 190.973C54.8233 190.973 82.6387 178.145 89.6542 150.002C97.2913 119.364 78.3423 95.7171 78.3423 95.7171C78.3423 95.7171 109.779 100.348 132.526 80.5988C150.828 64.7017 147.203 34.8648 147.203 34.8648C147.203 34.8648 161.6 53.3124 185.596 53.2211C192.239 53.3262 198.759 51.4293 204.309 47.7773C209.858 44.1254 214.18 38.8875 216.712 32.7453C216.712 32.7453 219.535 56.9253 247.872 71.7052C271.161 83.8518 296.028 72.0751 296.028 72.0751C296.028 72.0751 228.609 -14.8564 128.753 35.9556C26.1012 88.1974 54.8233 190.973 54.8233 190.973Z" fill="black"/>
<path d="M120.383 109.901C120.383 109.901 89.3516 142.011 104.978 168.475" stroke="black" stroke-linecap="round" stroke-linejoin="round"/>
<path d="M231.313 65.9318C231.313 65.9318 200.282 98.041 215.908 124.506" stroke="black" stroke-linecap="round" stroke-linejoin="round"/>
</svg>
