<svg width="194" height="228" viewBox="0 0 194 228" fill="none" xmlns="http://www.w3.org/2000/svg">
<path d="M100.185 175.97L41.2493 145.057L116.623 15.2261C118.923 10.8441 122.869 7.55474 127.594 6.08117C132.318 4.60761 137.435 5.07042 141.818 7.36788L156.297 14.9665C160.679 17.2667 163.969 21.2134 165.443 25.9386C166.917 30.6639 166.454 35.781 164.155 40.1648L100.185 175.97Z" fill="#FFCBF8" stroke="#F7CDF5" stroke-miterlimit="10"/>
<path d="M41.2546 145.059L100.183 175.968L94.4848 186.831C93.5428 188.627 92.2056 190.185 90.574 191.389C88.9424 192.592 87.059 193.41 85.0655 193.78L73.55 195.917C70.8324 196.422 68.2647 197.536 66.0405 199.177C63.8163 200.819 61.9936 202.943 60.7096 205.391L56.8808 212.69L36.1899 201.837L39.7407 195.068C41.0166 192.634 41.7271 189.944 41.8195 187.198C41.9118 184.452 41.3836 181.721 40.274 179.207L35.1454 167.598C34.3309 165.753 33.9435 163.749 34.0121 161.733C34.0806 159.718 34.6034 157.744 35.5415 155.96L41.2546 145.059Z" stroke="black" stroke-miterlimit="10"/>
<path d="M34.1055 161.113L90.7973 190.85" stroke="black" stroke-miterlimit="10"/>
<path d="M41.1094 192.138L62.109 203.153" stroke="black" stroke-miterlimit="10"/>
<path d="M166.144 28.441C161.222 37.8233 148.089 40.6331 136.81 34.7169C125.531 28.8008 120.376 16.3978 125.298 7.01552" stroke="black" stroke-miterlimit="10"/>
<path d="M161.467 18.8878C157.644 26.1756 148.942 29.1468 142.032 25.5219C135.121 21.897 132.618 13.05 136.442 5.76071" stroke="black" stroke-miterlimit="10"/>
<path d="M124.972 22.9333L52.3583 151.061" stroke="black" stroke-miterlimit="10"/>
<path d="M153.916 37.4896L88.5564 169.845" stroke="black" stroke-miterlimit="10"/>
<path d="M51.8426 209.93L40.4365 203.947L31.8364 220.343L43.2425 226.326L51.8426 209.93Z" fill="#FFCBF8" stroke="black" stroke-width="0.999602" stroke-miterlimit="10"/>
</svg>
