<svg width="53" height="52" viewBox="0 0 53 52" fill="none" xmlns="http://www.w3.org/2000/svg">
<path d="M26.501 8.25601C28.7809 8.25601 30.629 6.40785 30.629 4.12802C30.629 1.84819 28.7809 0 26.501 0C24.2212 0 22.373 1.84819 22.373 4.12802C22.373 6.40785 24.2212 8.25601 26.501 8.25601Z" fill="#FFCBF8"/>
<path d="M48.4151 51.955C50.6949 51.955 52.5431 50.1068 52.5431 47.827C52.5431 45.5471 50.6949 43.699 48.4151 43.699C46.1353 43.699 44.2871 45.5471 44.2871 47.827C44.2871 50.1068 46.1353 51.955 48.4151 51.955Z" fill="#FFCBF8"/>
<path d="M9.14401 36.713C14.1941 36.713 18.288 32.6191 18.288 27.569C18.288 22.5189 14.1941 18.425 9.14401 18.425C4.09392 18.425 0 22.5189 0 27.569C0 32.6191 4.09392 36.713 9.14401 36.713Z" fill="#FFCBF8"/>
</svg>
