<svg width="503" height="437" viewBox="0 0 503 437" fill="none" xmlns="http://www.w3.org/2000/svg">
<rect x="186.278" y="315.331" width="299.25" height="56.25" transform="rotate(-27.8846 186.278 315.331)" fill="#72CA7C"/>
<rect x="186.278" y="315.331" width="299.25" height="56.25" transform="rotate(-27.8846 186.278 315.331)" stroke="black" stroke-width="0.75"/>
<path d="M225.474 321.045L227.059 320.206L232.785 331.028L226.741 334.226L225.898 332.633L230.357 330.274L228.845 327.415C228.739 327.829 228.541 328.225 228.251 328.604C227.961 328.983 227.588 329.293 227.132 329.534C226.547 329.844 225.985 330.022 225.446 330.068C224.91 330.107 224.423 330.026 223.986 329.827C223.551 329.619 223.158 329.333 222.806 328.969C222.46 328.603 222.148 328.158 221.871 327.635L219.935 323.976L221.528 323.133L223.464 326.792C223.878 327.574 224.314 328.036 224.773 328.177C225.233 328.319 225.82 328.2 226.534 327.822C227.249 327.444 227.677 327.025 227.819 326.566C227.96 326.106 227.824 325.486 227.41 324.704L225.474 321.045ZM237.172 314.855L238.765 314.012L244.491 324.834L242.898 325.677L240.625 321.381L237.875 322.836C237.321 323.129 236.797 323.336 236.305 323.458C235.815 323.571 235.367 323.616 234.963 323.591C234.561 323.558 234.168 323.441 233.783 323.241C233.404 323.037 233.064 322.802 232.765 322.537C232.465 322.271 232.151 321.916 231.824 321.473C231.499 321.022 231.211 320.584 230.96 320.16C230.707 319.731 230.418 319.211 230.095 318.6L231.687 317.757C231.978 318.306 232.213 318.745 232.394 319.074C232.58 319.4 232.786 319.745 233.011 320.109C233.235 320.468 233.424 320.739 233.581 320.922C233.742 321.101 233.928 321.278 234.139 321.451C234.35 321.625 234.549 321.732 234.736 321.772C234.921 321.807 235.135 321.823 235.378 321.82C235.625 321.809 235.878 321.755 236.137 321.657C236.402 321.556 236.701 321.419 237.032 321.243L239.782 319.788L237.172 314.855ZM250.07 310.069L244.694 312.913L246.211 315.78L250.32 313.605L251.163 315.198L247.054 317.372L248.735 320.55L254.111 317.705L254.953 319.298L247.985 322.985L242.259 312.163L249.227 308.476L250.07 310.069ZM258.801 308.909C259.428 308.577 260.013 308.374 260.556 308.299C261.102 308.215 261.587 308.254 262.01 308.414C262.435 308.567 262.813 308.805 263.143 309.128C263.47 309.445 263.761 309.845 264.016 310.326C264.271 310.808 264.439 311.276 264.52 311.73C264.598 312.179 264.583 312.625 264.472 313.068C264.364 313.503 264.124 313.925 263.75 314.335C263.38 314.736 262.881 315.103 262.254 315.435L258.292 317.531L252.566 306.709L258.936 303.339L259.779 304.931L255.001 307.459L256.432 310.163L258.801 308.909ZM261.412 313.842C262.09 313.483 262.51 313.105 262.671 312.708C262.835 312.304 262.752 311.79 262.423 311.169C262.094 310.547 261.718 310.193 261.294 310.106C260.872 310.011 260.322 310.143 259.644 310.502L257.275 311.755L259.042 315.096L261.412 313.842ZM275.925 308.201L273.845 306.149L269.417 308.492L269.944 311.366L268.273 312.25L265.95 299.628L268.467 298.296L277.596 307.317L275.925 308.201ZM269.072 306.637L272.506 304.82L268.245 300.621L267.997 300.752L269.072 306.637ZM290.39 293.318C290.871 293.137 291.307 293.042 291.7 293.033C292.099 293.021 292.445 293.093 292.739 293.248C293.031 293.399 293.283 293.594 293.496 293.833C293.714 294.069 293.916 294.363 294.102 294.715C294.272 295.036 294.396 295.358 294.474 295.682C294.552 296.005 294.573 296.345 294.537 296.702C294.503 297.052 294.405 297.392 294.242 297.723C294.082 298.047 293.83 298.372 293.486 298.7C293.145 299.02 292.721 299.314 292.213 299.583L288.251 301.679L282.525 290.857L286.487 288.761C287.031 288.473 287.555 288.299 288.059 288.237C288.561 288.171 289.003 288.205 289.387 288.34C289.77 288.476 290.103 288.667 290.387 288.915C290.675 289.16 290.91 289.453 291.091 289.795C291.771 291.08 291.492 292.168 290.254 293.062L290.39 293.318ZM284.96 291.607L286.391 294.311L288.76 293.057C289.345 292.747 289.7 292.427 289.823 292.097C289.947 291.766 289.879 291.358 289.622 290.871C289.364 290.384 289.064 290.099 288.721 290.015C288.379 289.931 287.915 290.044 287.33 290.354L284.96 291.607ZM291.37 297.99C292.085 297.612 292.517 297.231 292.665 296.848C292.813 296.464 292.719 295.954 292.382 295.317C292.045 294.68 291.676 294.315 291.276 294.222C290.875 294.129 290.317 294.271 289.603 294.65L287.233 295.903L289.001 299.244L291.37 297.99ZM306.006 278.433L307.591 277.594L313.317 288.416L307.273 291.614L306.43 290.021L310.89 287.662L309.377 284.803C309.271 285.217 309.073 285.613 308.783 285.992C308.493 286.371 308.12 286.681 307.664 286.922C307.079 287.232 306.517 287.41 305.978 287.457C305.442 287.495 304.955 287.415 304.518 287.215C304.083 287.007 303.69 286.722 303.338 286.358C302.992 285.991 302.68 285.546 302.403 285.023L300.467 281.364L302.06 280.521L303.996 284.18C304.41 284.962 304.846 285.424 305.306 285.565C305.765 285.707 306.352 285.588 307.067 285.21C307.781 284.832 308.209 284.413 308.351 283.954C308.492 283.495 308.356 282.874 307.942 282.092L306.006 278.433ZM325.081 280.153L326.674 279.31L328.865 283.451L327.272 284.293L325.924 281.745L318.093 285.889L319.441 288.437L317.849 289.279L315.658 285.139L316.505 284.691C316.57 284.351 316.586 283.968 316.553 283.542C316.52 283.115 316.459 282.706 316.371 282.315C316.286 281.916 316.139 281.437 315.929 280.879C315.72 280.32 315.531 279.843 315.362 279.449C315.193 279.054 314.946 278.532 314.622 277.881C314.303 277.228 314.049 276.723 313.86 276.366C313.673 276 313.397 275.473 313.033 274.784L313.004 274.73L320.198 270.924L325.081 280.153ZM318.253 283.766L323.489 280.995L319.448 273.359L315.439 275.48C315.908 276.379 316.303 277.168 316.622 277.847C316.947 278.524 317.259 279.244 317.557 280.008C317.855 280.771 318.062 281.47 318.179 282.104C318.298 282.731 318.323 283.285 318.253 283.766ZM337.62 274.632C337.067 275.541 336.252 276.28 335.175 276.85C334.097 277.42 333.027 277.678 331.965 277.624C330.899 277.565 329.945 277.241 329.104 276.652C328.259 276.058 327.568 275.254 327.031 274.239C326.631 273.482 326.379 272.711 326.274 271.925C326.169 271.138 326.208 270.385 326.391 269.665C326.576 268.937 326.929 268.257 327.449 267.624C327.974 266.988 328.641 266.456 329.449 266.029C330.257 265.601 331.069 265.351 331.885 265.277C332.706 265.2 333.467 265.291 334.167 265.55C334.87 265.802 335.518 266.192 336.109 266.721C336.701 267.25 337.196 267.892 337.596 268.648C338.134 269.663 338.41 270.687 338.426 271.719C338.439 272.747 338.171 273.717 337.62 274.632ZM328.624 273.396C329.969 275.939 331.872 276.559 334.332 275.258C336.792 273.956 337.349 272.034 336.004 269.491C334.656 266.943 332.751 266.32 330.291 267.621C327.831 268.923 327.275 270.848 328.624 273.396ZM345.764 264.018C346.245 263.837 346.682 263.741 347.075 263.732C347.473 263.721 347.819 263.793 348.114 263.948C348.406 264.099 348.658 264.294 348.87 264.532C349.088 264.769 349.29 265.063 349.476 265.415C349.646 265.736 349.77 266.058 349.849 266.381C349.927 266.705 349.948 267.045 349.911 267.402C349.878 267.751 349.779 268.092 349.617 268.423C349.456 268.747 349.204 269.072 348.861 269.4C348.519 269.72 348.095 270.014 347.587 270.282L343.625 272.379L337.899 261.557L341.861 259.461C342.405 259.173 342.929 258.999 343.434 258.937C343.935 258.871 344.378 258.905 344.761 259.04C345.144 259.176 345.478 259.367 345.761 259.615C346.05 259.86 346.285 260.153 346.466 260.495C347.145 261.779 346.866 262.868 345.629 263.762L345.764 264.018ZM340.335 262.307L341.765 265.011L344.134 263.757C344.72 263.447 345.074 263.127 345.198 262.797C345.321 262.466 345.254 262.058 344.996 261.571C344.739 261.084 344.439 260.799 344.096 260.715C343.753 260.631 343.289 260.744 342.704 261.053L340.335 262.307ZM346.745 268.69C347.459 268.312 347.891 267.931 348.039 267.547C348.188 267.164 348.094 266.654 347.756 266.017C347.419 265.38 347.051 265.015 346.65 264.922C346.249 264.829 345.692 264.971 344.977 265.349L342.608 266.603L344.375 269.944L346.745 268.69ZM361.653 261.915C361.1 262.824 360.285 263.564 359.208 264.134C358.13 264.704 357.06 264.962 355.998 264.908C354.932 264.848 353.978 264.524 353.137 263.936C352.292 263.342 351.601 262.537 351.064 261.522C350.664 260.766 350.412 259.995 350.307 259.208C350.202 258.422 350.241 257.668 350.424 256.949C350.609 256.221 350.962 255.541 351.482 254.907C352.007 254.271 352.674 253.74 353.482 253.312C354.29 252.885 355.102 252.634 355.918 252.56C356.739 252.484 357.5 252.575 358.2 252.834C358.903 253.085 359.551 253.475 360.142 254.004C360.733 254.533 361.229 255.176 361.629 255.932C362.166 256.947 362.443 257.971 362.459 259.003C362.472 260.03 362.203 261.001 361.653 261.915ZM352.657 260.679C354.002 263.222 355.905 263.843 358.365 262.541C360.825 261.24 361.382 259.317 360.037 256.774C358.688 254.226 356.784 253.603 354.324 254.905C351.864 256.206 351.308 258.131 352.657 260.679ZM369.879 244.636L375.606 255.457L374.013 256.3L369.13 247.071L365.137 249.184C365.536 249.927 365.871 250.565 366.14 251.099C366.406 251.627 366.697 252.252 367.013 252.974C367.333 253.692 367.573 254.315 367.732 254.841C367.896 255.364 368.027 255.924 368.125 256.522C368.219 257.115 368.226 257.628 368.144 258.063C368.068 258.494 367.898 258.906 367.634 259.297C367.376 259.686 367.016 260.002 366.555 260.246L365.712 258.654C365.883 258.563 366.024 258.446 366.133 258.302C366.242 258.158 366.316 257.99 366.353 257.797C366.393 257.597 366.415 257.387 366.417 257.167C366.417 256.941 366.381 256.685 366.309 256.399C366.242 256.109 366.168 255.824 366.085 255.543C366 255.257 365.881 254.932 365.728 254.568C365.573 254.2 365.424 253.854 365.28 253.533C365.139 253.203 364.964 252.828 364.755 252.409C364.543 251.984 364.346 251.598 364.162 251.251C363.984 250.901 363.772 250.496 363.528 250.035L362.686 248.442L369.879 244.636ZM379.469 245.06C379.971 244.795 380.454 244.616 380.915 244.524C381.377 244.432 381.791 244.418 382.157 244.483C382.525 244.54 382.87 244.666 383.192 244.861C383.516 245.047 383.796 245.276 384.033 245.549C384.275 245.819 384.49 246.129 384.676 246.482C384.862 246.834 384.999 247.186 385.085 247.538C385.177 247.887 385.211 248.25 385.185 248.628C385.162 248.998 385.072 249.354 384.915 249.696C384.76 250.03 384.515 250.362 384.179 250.692C383.843 251.022 383.424 251.32 382.922 251.586L378.96 253.682L373.234 242.861L374.827 242.018L377.1 246.314L379.469 245.06ZM382.079 249.993C382.758 249.634 383.178 249.256 383.339 248.86C383.502 248.455 383.42 247.942 383.091 247.32C382.762 246.699 382.386 246.344 381.962 246.257C381.54 246.162 380.99 246.294 380.312 246.653L377.942 247.907L379.71 251.247L382.079 249.993ZM387.413 244.347C387.033 243.892 386.695 243.385 386.399 242.826C386.103 242.266 385.875 241.704 385.715 241.139C385.552 240.569 385.472 239.985 385.474 239.387C385.473 238.784 385.564 238.216 385.745 237.682C385.927 237.149 386.236 236.637 386.673 236.147C387.113 235.65 387.669 235.223 388.342 234.866C389.062 234.486 389.768 234.254 390.461 234.173C391.156 234.083 391.789 234.133 392.36 234.322C392.927 234.505 393.442 234.79 393.905 235.175C394.372 235.557 394.768 236.024 395.093 236.575L393.5 237.417C393.184 236.995 392.892 236.668 392.625 236.439C392.36 236.201 392.057 236.03 391.716 235.925C391.381 235.817 391.009 235.809 390.599 235.9C390.195 235.988 389.724 236.174 389.185 236.459C388.04 237.065 387.374 237.798 387.187 238.66C387.002 239.513 387.27 240.621 387.991 241.983C388.709 243.34 389.474 244.185 390.287 244.517C391.101 244.842 392.081 244.701 393.226 244.096C393.764 243.811 394.185 243.528 394.488 243.249C394.793 242.961 394.996 242.649 395.095 242.311C395.197 241.965 395.226 241.618 395.181 241.271C395.142 240.92 395.036 240.496 394.865 239.996L396.458 239.154C396.73 239.732 396.893 240.322 396.947 240.923C397.005 241.522 396.952 242.111 396.787 242.689C396.619 243.261 396.303 243.81 395.838 244.334C395.378 244.856 394.788 245.307 394.068 245.688C393.395 246.044 392.73 246.267 392.075 246.355C391.424 246.441 390.827 246.409 390.284 246.259C389.737 246.104 389.217 245.859 388.721 245.524C388.226 245.19 387.79 244.797 387.413 244.347ZM403.536 226.827L404.379 228.42L401.054 230.179L405.937 239.408L404.345 240.251L399.461 231.022L396.136 232.781L395.294 231.188L403.536 226.827ZM414.414 227.694C414.894 227.512 415.331 227.417 415.724 227.408C416.122 227.396 416.469 227.468 416.763 227.624C417.055 227.774 417.307 227.969 417.52 228.208C417.737 228.444 417.939 228.738 418.126 229.091C418.296 229.412 418.42 229.734 418.498 230.057C418.576 230.38 418.597 230.72 418.561 231.078C418.527 231.427 418.429 231.768 418.266 232.099C418.106 232.422 417.854 232.748 417.51 233.076C417.169 233.395 416.744 233.69 416.237 233.958L412.275 236.055L406.549 225.233L410.511 223.137C411.055 222.849 411.579 222.674 412.083 222.613C412.585 222.546 413.027 222.581 413.41 222.716C413.794 222.851 414.127 223.043 414.411 223.29C414.699 223.535 414.934 223.829 415.115 224.171C415.794 225.455 415.516 226.544 414.278 227.437L414.414 227.694ZM408.984 225.983L410.414 228.686L412.784 227.433C413.369 227.123 413.723 226.803 413.847 226.472C413.97 226.142 413.903 225.733 413.646 225.246C413.388 224.76 413.088 224.474 412.745 224.39C412.403 224.306 411.939 224.419 411.353 224.729L408.984 225.983ZM415.394 232.366C416.109 231.987 416.54 231.607 416.689 231.223C416.837 230.84 416.743 230.329 416.406 229.692C416.069 229.055 415.7 228.69 415.299 228.597C414.899 228.504 414.341 228.647 413.627 229.025L411.257 230.279L413.025 233.619L415.394 232.366ZM424.322 215.829L425.914 214.986L431.64 225.808L430.048 226.65L426.023 219.045L425.775 219.176L424.641 229.511L423.048 230.354L417.322 219.532L418.915 218.69L422.939 226.295L423.195 226.159L424.322 215.829ZM437.383 210.956L432.007 213.801L433.524 216.667L437.633 214.493L438.476 216.085L434.366 218.26L436.048 221.437L441.423 218.593L442.266 220.185L435.298 223.872L429.572 213.051L436.54 209.364L437.383 210.956Z" fill="black"/>
<path d="M71 268H68V326H71V268Z" fill="#72C97B" stroke="black" stroke-miterlimit="10"/>
<path d="M31.1361 267C31.1361 267 32.3898 271.417 37.3923 272.987C42.4067 274.562 49.1161 271.627 54.7343 275.663C57.3458 277.539 59.3748 282.779 59.5296 285.29C59.6336 287.03 60.1069 288.727 60.9177 290.267C61.7286 291.808 62.8581 293.156 64.2304 294.221L68.4563 297.489C68.6254 297.62 68.7623 297.788 68.8566 297.981C68.9509 298.173 68.9999 298.385 69 298.599C69 298.862 68.9266 299.119 68.7882 299.342C68.6497 299.565 68.4519 299.744 68.2171 299.859C67.9824 299.974 67.7202 300.02 67.4605 299.992C67.2008 299.965 66.9541 299.864 66.7485 299.702L63.3379 297.017C61.897 295.877 60.216 295.083 58.4233 294.695C56.6306 294.308 54.7736 294.338 52.9941 294.782C48.9272 295.811 43.0972 296.309 37.9583 293.073C25.8858 285.471 31.1361 267 31.1361 267Z" fill="#72C97B" stroke="black" stroke-miterlimit="10"/>
<path d="M68.5293 317.19L63.2922 312.731C62.4777 312.035 61.9032 311.107 61.6488 310.075C60.769 306.532 57.5827 298 47.3014 298C35.4415 298 30 308.175 30 308.175C30 308.175 33.9068 307.075 36.2788 308.862C37.9211 310.1 43.1156 320 50.7896 320C54.6474 320 57.2948 318.866 59.0191 317.661C59.9688 317.005 61.1158 316.684 62.2735 316.752C63.4312 316.82 64.5316 317.272 65.3958 318.034L66.7364 319.207C66.9325 319.378 67.1746 319.49 67.4337 319.529C67.6927 319.568 67.9578 319.533 68.1968 319.427C68.4359 319.321 68.6389 319.15 68.7814 318.933C68.9239 318.716 68.9998 318.463 69 318.205C69.0001 318.012 68.9582 317.822 68.8769 317.647C68.7957 317.472 68.6772 317.316 68.5293 317.19Z" fill="#72C97B" stroke="black" stroke-miterlimit="10"/>
<path d="M51.7819 243C46.3534 244.089 40 247.293 40 256.674C40 263.929 46.2552 269.427 51.2384 270.266C53.2885 270.611 54.8222 270.538 55.9074 270.341C57.5432 270.042 59.2279 270.397 60.6198 271.334L67.2595 275.811C67.4294 275.926 67.626 275.991 67.8286 275.999C68.0312 276.008 68.2323 275.959 68.4106 275.859C68.5888 275.76 68.7377 275.612 68.8415 275.432C68.9452 275.251 69 275.046 69 274.836C69 274.642 68.9533 274.452 68.8641 274.282C68.7749 274.111 68.6461 273.967 68.4893 273.861L64.3737 271.086C63.2329 270.317 62.3528 269.199 61.8563 267.888C61.3598 266.577 61.2716 265.138 61.6042 263.772C61.8407 262.824 61.9631 261.849 61.9688 260.869C61.9688 252.479 50.4762 250.477 50.4762 245.807C50.4772 243.844 51.7819 243 51.7819 243Z" fill="#72C97B" stroke="black" stroke-miterlimit="10"/>
<path d="M67.4146 267.969C67.4146 267.969 67.2873 264.092 67.2873 262.247C67.2873 258.317 66 253 66 253C66 253 70 260.271 70 268L67.4146 267.969Z" fill="#72C97B" stroke="black" stroke-miterlimit="10"/>
<path d="M70.097 268H71.6042V260.495C71.6049 259.003 71.9924 257.537 72.7269 256.249C73.4615 254.962 74.5165 253.898 75.7837 253.168C77.7447 252.036 79.8244 250.057 80.6246 246.624C82.2369 239.705 78.1335 232 78.1335 232C78.1335 232 70.1613 237.204 69.1178 244.317C68.786 246.58 69.2197 249.588 69.6209 251.637C69.969 253.42 70.1408 255.235 70.1336 257.054L70.097 268Z" fill="#72C97B" stroke="black" stroke-miterlimit="10"/>
<path d="M70.5807 284.391L73.1419 282.484C74.2948 281.623 75.2198 280.481 75.8334 279.162C76.4469 277.843 76.7296 276.388 76.6558 274.929C76.5318 272.371 76.9358 269.126 79.0676 266.434C83.3 261.091 91.9673 262.029 96.7413 257.932C100.192 254.97 99.4219 251 99.4219 251C99.4219 251 106.45 260.494 103.09 270.64C98.6577 284.021 87.9746 283.738 82.486 282.593C81.3257 282.353 80.1293 282.363 78.9729 282.622C77.8165 282.881 76.7254 283.383 75.769 284.097L72.2379 286.724C72.0277 286.881 71.7792 286.975 71.5201 286.996C71.261 287.016 71.0013 286.964 70.7696 286.843C70.538 286.722 70.3436 286.538 70.2077 286.311C70.0719 286.084 70 285.824 70 285.558C70 285.33 70.0527 285.106 70.1536 284.903C70.2545 284.7 70.4008 284.525 70.5807 284.391Z" fill="#72C97B" stroke="black" stroke-miterlimit="10"/>
<path d="M70.0005 311.929C70.006 311.721 70.0563 311.517 70.1476 311.332C70.239 311.147 70.3691 310.985 70.5287 310.858L74.8826 307.393C74.8826 307.393 77.2632 305.554 78.377 302.541C79.2192 300.264 80.5956 293.033 86.8852 289.55C93.9134 285.658 106 290.321 106 290.321C106 290.321 103.932 291.217 103.118 293.438C101.742 297.193 104.4 310.412 90.9434 313.627C86.3021 314.736 81.9388 313.158 79.1596 311.693C78.1834 311.175 77.081 310.963 75.9889 311.084C74.8969 311.204 73.8633 311.653 73.0162 312.373L72.2279 313.046C72.0267 313.218 71.7817 313.326 71.5222 313.358C71.2627 313.39 70.9997 313.345 70.7647 313.227C70.5297 313.109 70.3326 312.924 70.1971 312.694C70.0616 312.463 69.9933 312.198 70.0005 311.929V311.929Z" fill="#72C97B" stroke="black" stroke-miterlimit="10"/>
<path d="M47.5248 248C44.7833 259.362 53.3541 264.384 60 269L47.5248 248Z" fill="#72C97B"/>
<path d="M47.5248 248C44.7833 259.362 53.3541 264.384 60 269" stroke="black" stroke-miterlimit="10"/>
<path d="M34 277L60 293" stroke="black" stroke-miterlimit="10"/>
<path d="M38 305.283C38 305.283 49.5814 302.56 62 314L38 305.283Z" fill="#72C97B"/>
<path d="M38 305.283C38 305.283 49.5814 302.56 62 314" stroke="black" stroke-miterlimit="10"/>
<path d="M101 261C100.287 272.175 89.6752 269.798 78 280L101 261Z" fill="#72C97B"/>
<path d="M101 261C100.287 272.175 89.6752 269.798 78 280" stroke="black" stroke-miterlimit="10"/>
<path d="M100 292.091C100 292.091 94.138 291.15 89.2085 295.318C84.2791 299.486 81.5968 305.714 78 308" fill="#72C97B"/>
<path d="M100 292.091C100 292.091 94.138 291.15 89.2085 295.318C84.2791 299.486 81.5968 305.714 78 308" stroke="black" stroke-miterlimit="10"/>
<path d="M87.4824 363H51.5176L47 328H92L87.4824 363Z" fill="#AA896D" stroke="black" stroke-miterlimit="10"/>
<path d="M90.7022 325H48.2978C45.9242 325 44 327.015 44 329.5C44 331.985 45.9242 334 48.2978 334H90.7022C93.0758 334 95 331.985 95 329.5C95 327.015 93.0758 325 90.7022 325Z" fill="#AA896D" stroke="black" stroke-miterlimit="10"/>
<path d="M89.756 369H49.2441L47 363H92L89.756 369Z" fill="#AA896D" stroke="black" stroke-miterlimit="10"/>
<path d="M44 332H95" stroke="black" stroke-miterlimit="10"/>
<path d="M448.768 308.638C447.614 308.638 446.621 309.064 445.777 309.676C443.417 297.327 432.687 288 419.8 288C406.736 288 395.89 297.586 393.732 310.187C392.771 309.308 391.569 308.638 390.115 308.638C386.955 308.638 385.108 311.231 385.108 314.431C385.108 317.63 386.955 320.224 390.115 320.224C391.516 320.224 392.683 319.604 393.626 318.773C395.525 331.682 406.519 341.586 419.799 341.586C432.908 341.586 443.783 331.936 445.89 319.272C446.709 319.839 447.666 320.224 448.769 320.224C451.929 320.224 453.776 317.63 453.776 314.431C453.776 311.231 451.928 308.638 448.768 308.638Z" fill="#FDE2BA"/>
<path d="M424.259 313.826C424.253 315.032 423.776 316.186 422.932 317.037C422.087 317.887 420.945 318.365 419.753 318.365C418.562 318.365 417.42 317.887 416.575 317.037C415.731 316.186 415.254 315.032 415.248 313.826" stroke="black" stroke-linecap="round" stroke-linejoin="round"/>
<path d="M432.242 312.49C435.412 312.49 437.982 309.889 437.982 306.68C437.982 303.47 435.412 300.869 432.242 300.869C429.073 300.869 426.503 303.47 426.503 306.68C426.503 309.889 429.073 312.49 432.242 312.49Z" fill="white" stroke="black" stroke-linecap="round" stroke-linejoin="round"/>
<path d="M432.243 300.869C433.761 300.876 435.214 301.491 436.285 302.58C437.356 303.669 437.957 305.143 437.957 306.68C437.957 308.216 437.356 309.69 436.285 310.779C435.214 311.868 433.761 312.484 432.243 312.49V300.869Z" fill="black" stroke="black" stroke-miterlimit="10"/>
<path d="M406.755 312.49C409.925 312.49 412.495 309.889 412.495 306.68C412.495 303.47 409.925 300.869 406.755 300.869C403.585 300.869 401.016 303.47 401.016 306.68C401.016 309.889 403.585 312.49 406.755 312.49Z" fill="white" stroke="black" stroke-linecap="round" stroke-linejoin="round"/>
<path d="M406.755 300.869C407.511 300.866 408.26 301.014 408.959 301.304C409.659 301.595 410.294 302.022 410.83 302.562C411.365 303.102 411.79 303.743 412.08 304.45C412.37 305.157 412.52 305.914 412.52 306.68C412.52 307.445 412.37 308.202 412.08 308.909C411.79 309.616 411.365 310.257 410.83 310.797C410.294 311.337 409.659 311.765 408.959 312.055C408.26 312.346 407.511 312.493 406.755 312.49V300.869Z" fill="black" stroke="black" stroke-miterlimit="10"/>
<path d="M390.39 311.462C391.165 311.462 391.908 311.774 392.455 312.328C393.003 312.883 393.311 313.635 393.311 314.419C393.311 315.203 393.003 315.955 392.455 316.51C391.908 317.064 391.165 317.376 390.39 317.376" stroke="black" stroke-miterlimit="10"/>
<path d="M448.934 317.509C448.549 317.512 448.167 317.437 447.81 317.289C447.454 317.142 447.13 316.924 446.857 316.649C446.584 316.375 446.367 316.048 446.219 315.688C446.071 315.328 445.995 314.942 445.995 314.552C445.995 314.162 446.071 313.776 446.219 313.416C446.367 313.057 446.584 312.73 446.857 312.455C447.13 312.18 447.454 311.963 447.81 311.815C448.167 311.668 448.549 311.593 448.934 311.595" stroke="black" stroke-miterlimit="10"/>
<path d="M405.954 350.441L405.956 344.555C405.957 342.369 405.489 340.21 404.584 338.226C403.679 336.241 402.358 334.48 400.715 333.064C397.796 330.549 394.032 329.27 390.206 329.492C386.38 329.714 382.785 331.421 380.17 334.257L372.007 343.11C369.359 345.982 367.922 349.788 368.003 353.717C368.085 357.646 369.677 361.387 372.443 364.145L372.858 364.559C374.773 366.469 377.163 367.819 379.774 368.465C382.385 369.111 385.12 369.031 387.69 368.231L389.6 367.636L405.954 350.441Z" fill="white" stroke="black" stroke-linecap="round" stroke-linejoin="round"/>
<path d="M447.635 377.535C449.366 376.315 450.576 374.476 451.023 372.39C451.427 372.448 451.84 372.412 452.229 372.285C452.618 372.157 452.973 371.942 453.267 371.655C453.562 371.368 453.788 371.017 453.929 370.629C454.07 370.24 454.121 369.825 454.08 369.413C454.038 369.001 453.905 368.605 453.689 368.253C453.474 367.901 453.182 367.604 452.836 367.383C452.49 367.163 452.1 367.025 451.693 366.98C451.287 366.935 450.876 366.984 450.491 367.124C449.788 365.527 448.616 364.19 447.135 363.293C445.653 362.397 443.934 361.985 442.212 362.115C440.491 362.244 438.851 362.909 437.517 364.017C436.182 365.125 435.218 366.624 434.756 368.308C434.294 369.991 434.357 371.778 434.936 373.425C435.515 375.071 436.582 376.496 437.991 377.506C439.4 378.515 441.082 379.06 442.809 379.065C444.535 379.071 446.22 378.536 447.635 377.535Z" fill="#FDE2BA" stroke="black" stroke-miterlimit="10"/>
<path d="M425.376 345.28L420.85 341.773C429.009 341.773 430.895 344.57 434.242 348.053L445.435 361.047L433.099 369.772L423.517 355.887C422.374 354.231 421.928 352.183 422.276 350.194C422.625 348.205 423.74 346.437 425.376 345.28Z" fill="#FFE576" stroke="black" stroke-miterlimit="10"/>
<path d="M462.332 389.226C462.332 387.771 462.049 386.33 461.499 384.985C460.949 383.641 460.142 382.419 459.126 381.391C458.11 380.362 456.903 379.545 455.575 378.989C454.247 378.432 452.824 378.145 451.386 378.145H439.878L431.291 349.795C430.58 347.445 429.142 345.388 427.189 343.927C425.237 342.466 422.873 341.677 420.445 341.677C417.437 341.677 414.551 342.887 412.424 345.041C410.296 347.194 409.101 350.116 409.101 353.162V400.213L451.362 400.307C452.802 400.31 454.227 400.026 455.558 399.47C456.889 398.915 458.099 398.099 459.117 397.07C460.136 396.041 460.945 394.818 461.496 393.472C462.048 392.126 462.332 390.683 462.332 389.226Z" fill="#FFE576"/>
<path d="M424.592 408.485C425.592 407.438 426.377 406.203 426.905 404.85C427.433 403.496 427.692 402.051 427.668 400.596C427.643 399.141 427.336 397.705 426.764 396.37C426.192 395.035 425.365 393.827 424.332 392.816L416.058 384.717L429.351 358.294C430.453 356.104 430.831 353.613 430.431 351.189C430.031 348.764 428.873 346.534 427.127 344.825C426.056 343.777 424.792 342.952 423.406 342.398C422.02 341.845 420.54 341.573 419.051 341.598C417.561 341.624 416.091 341.946 414.725 342.546C413.358 343.147 412.122 344.014 411.086 345.098L382.422 375.112C381.455 376.123 380.925 377.482 380.947 378.889C380.969 380.296 381.541 381.637 382.538 382.618L409.098 408.731C410.131 409.747 411.351 410.546 412.689 411.083C414.027 411.62 415.457 411.885 416.896 411.862C418.335 411.839 419.756 411.529 421.076 410.949C422.397 410.37 423.592 409.532 424.592 408.485Z" fill="#FFE576"/>
<path d="M393.732 310.187C393.732 310.187 395.711 307.753 399.126 303.627C402.519 299.526 403.245 295.385 403.245 295.385C403.245 295.385 406.787 298.182 412.098 298.182C419.795 298.182 422.453 291.483 422.453 291.483C422.453 291.483 425.581 297.858 431.296 297.858C435.569 297.858 436.929 295.279 436.929 295.279C436.929 295.279 439.983 308.82 445.777 309.676C445.777 309.676 444.922 288 419.8 288C397.258 288 393.732 310.187 393.732 310.187Z" fill="#4D4D4D"/>
<path d="M376.956 337.699C376.956 337.699 380.889 344.07 389.43 344.639C397.972 345.208 405.614 341.795 405.614 341.795" stroke="black" stroke-linecap="round" stroke-linejoin="round"/>
<path d="M372.077 343.126L379.764 350.873L369.523 360.013" stroke="black" stroke-linecap="round" stroke-linejoin="round"/>
<path d="M375.778 336.506L374.023 338.377C373.7 338.721 373.714 339.265 374.054 339.593C374.395 339.92 374.932 339.906 375.255 339.561L377.01 337.69C377.333 337.346 377.319 336.802 376.979 336.475C376.639 336.148 376.101 336.162 375.778 336.506Z" fill="white" stroke="black" stroke-linecap="round" stroke-linejoin="round"/>
<path d="M417.256 341.795C419.355 343.812 420.656 346.534 420.913 349.452C421.171 352.37 420.368 355.283 418.656 357.644L413.541 364.696C411.746 367.171 409.085 368.857 406.102 369.41C403.119 369.963 400.04 369.34 397.495 367.67L393.954 365.344L399.336 358.923L406.067 363.869L417.521 349.838L412.294 343.864C413.77 342.8 415.468 342.092 417.256 341.795Z" fill="white" stroke="black" stroke-linecap="round" stroke-linejoin="round"/>
<path d="M425.282 342.114C426.715 342.326 429.407 344.382 430.895 348.618C432.383 352.854 436.589 367.308 436.589 367.308C435.255 367.315 433.954 366.892 432.873 366.1C431.793 365.308 430.99 364.188 430.58 362.903L423.879 341.865C423.879 341.865 423.849 341.901 425.282 342.114Z" fill="white" stroke="black" stroke-linecap="round" stroke-linejoin="round"/>
<path d="M415.173 345.714C413.655 344.231 411.639 343.385 409.53 343.346C409.508 342.933 409.393 342.53 409.195 342.168C408.996 341.807 408.719 341.495 408.384 341.258C408.049 341.021 407.665 340.865 407.261 340.8C406.857 340.736 406.444 340.765 406.054 340.886C405.663 341.007 405.304 341.216 405.005 341.499C404.706 341.781 404.474 342.128 404.327 342.514C404.181 342.9 404.123 343.315 404.158 343.728C404.193 344.14 404.32 344.539 404.53 344.894C403.119 345.901 402.05 347.324 401.468 348.969C400.886 350.615 400.82 352.401 401.279 354.086C401.738 355.771 402.699 357.271 404.032 358.382C405.365 359.493 407.003 360.16 408.725 360.292C410.446 360.425 412.165 360.016 413.649 359.123C415.132 358.229 416.306 356.893 417.012 355.298C417.717 353.703 417.919 351.927 417.59 350.211C417.261 348.496 416.417 346.925 415.173 345.714L415.173 345.714Z" fill="#FDE2BA" stroke="black" stroke-miterlimit="10"/>
<path d="M399.621 351.092L410.466 361.655L398.866 373.861C397.483 375.317 395.585 376.157 393.589 376.196C391.594 376.235 389.665 375.47 388.227 374.07C386.789 372.669 385.96 370.747 385.921 368.727C385.882 366.708 386.638 364.755 388.022 363.299L399.621 351.092Z" fill="#FFE576" stroke="black" stroke-miterlimit="10"/>
<path d="M422.363 371.786L414.176 381.906L424.332 392.816" stroke="black" stroke-miterlimit="10"/>
<path d="M384.89 378.14L416.788 408.588" stroke="black" stroke-miterlimit="10"/>
<path d="M428.271 395.855H455.248" stroke="black" stroke-miterlimit="10"/>
<path d="M287.948 115.82L322.498 106.555C325.239 105.82 328.123 105.815 330.866 106.541L362.031 114.79C363.455 115.167 364.714 116.008 365.613 117.182C366.512 118.357 367 119.798 367 121.28V167.695C367 169.174 366.515 170.612 365.62 171.784C364.725 172.957 363.471 173.799 362.051 174.18L327.502 183.445C324.761 184.18 321.877 184.185 319.134 183.459L287.969 175.21C286.545 174.833 285.286 173.992 284.387 172.818C283.488 171.643 283 170.202 283 168.72V122.305C283 120.826 283.485 119.388 284.38 118.215C285.275 117.043 286.529 116.201 287.948 115.82Z" fill="#FFC9F7"/>
<path d="M286 119.581L324.527 131L364 118" fill="#FFC9F7"/>
<path d="M286 119.581L324.527 131L364 118" stroke="black" stroke-miterlimit="10"/>
<path d="M325 131V181" stroke="black" stroke-miterlimit="10"/>
<path d="M327 108V127" stroke="black" stroke-miterlimit="10"/>
<path d="M301 101.269C300.177 101.269 299.362 101.107 298.601 100.792C297.841 100.477 297.15 100.015 296.567 99.4327C295.985 98.8506 295.524 98.1596 295.209 97.399C294.894 96.6384 294.731 95.8232 294.731 95H293.269C293.268 96.6626 292.608 98.257 291.432 99.4326C290.257 100.608 288.662 101.269 287 101.269V102.731C287.823 102.731 288.638 102.893 289.399 103.208C290.159 103.523 290.85 103.985 291.433 104.567C292.015 105.149 292.476 105.84 292.791 106.601C293.106 107.362 293.269 108.177 293.269 109H294.731C294.731 108.177 294.894 107.362 295.209 106.601C295.524 105.84 295.985 105.149 296.567 104.567C297.15 103.985 297.841 103.523 298.601 103.208C299.362 102.893 300.177 102.731 301 102.731V101.269Z" fill="#FFE476" stroke="black" stroke-miterlimit="10"/>
<path d="M344 107C345.105 107 346 106.105 346 105C346 103.895 345.105 103 344 103C342.895 103 342 103.895 342 105C342 106.105 342.895 107 344 107Z" fill="white" stroke="black" stroke-miterlimit="10"/>
<path d="M275 161C275.552 161 276 160.552 276 160C276 159.448 275.552 159 275 159C274.448 159 274 159.448 274 160C274 160.552 274.448 161 275 161Z" fill="white" stroke="black" stroke-miterlimit="10"/>
<path d="M341 119C341.552 119 342 118.552 342 118C342 117.448 341.552 117 341 117C340.448 117 340 117.448 340 118C340 118.552 340.448 119 341 119Z" fill="white" stroke="black" stroke-miterlimit="10"/>
<path d="M303 119C303.552 119 304 118.552 304 118C304 117.448 303.552 117 303 117C302.448 117 302 117.448 302 118C302 118.552 302.448 119 303 119Z" fill="white" stroke="black" stroke-miterlimit="10"/>
<path d="M338.5 116C338.776 116 339 115.776 339 115.5C339 115.224 338.776 115 338.5 115C338.224 115 338 115.224 338 115.5C338 115.776 338.224 116 338.5 116Z" fill="white" stroke="black" stroke-miterlimit="10"/>
<path d="M331 118C331 118 330.647 93.8016 350 82" stroke="black" stroke-miterlimit="10"/>
<path d="M300 107C300 107 307 113.044 307 123" stroke="black" stroke-miterlimit="10"/>
<path d="M302 95C302 95 311 101.818 311 120" stroke="black" stroke-miterlimit="10"/>
<path d="M289 117.733L324.206 128L359 116.895L326.311 108L289 117.733Z" stroke="black" stroke-miterlimit="10"/>
<path d="M321.387 105L320.013 103.911C320.419 103.325 320.742 102.684 320.973 102.005C321.427 100.654 321.356 99.4848 320.762 98.5294C320.536 98.1651 320.243 97.8503 319.899 97.6031C319.555 97.356 319.166 97.1814 318.757 97.0894C318.765 97.7805 318.658 98.468 318.441 99.1217C318.209 99.7343 317.784 100.249 317.235 100.584C316.926 100.784 316.579 100.911 316.217 100.957C315.855 101.004 315.487 100.967 315.14 100.851C314.37 100.586 313.827 99.8977 313.686 99.0087C313.603 98.4857 313.659 97.9493 313.848 97.4562C314.036 96.9631 314.351 96.5318 314.758 96.2078C315.36 95.7563 316.053 95.4499 316.785 95.3112C316.525 94.366 315.947 93.0973 314.675 92.3707C312.003 90.846 308.981 92.8307 308.951 92.851L308 91.3574C308.158 91.2502 311.917 88.7542 315.515 90.8084C316.924 91.6131 317.971 93.0491 318.461 94.8521C318.496 94.9811 318.528 95.1112 318.557 95.2425C318.665 95.2558 318.773 95.2724 318.88 95.2922C319.56 95.411 320.208 95.6745 320.784 96.0659C321.359 96.4573 321.849 96.9681 322.222 97.5656C323.113 98.999 323.241 100.755 322.593 102.643C322.303 103.484 321.897 104.278 321.387 105ZM317.025 97.0838C316.583 97.1767 316.165 97.3652 315.799 97.6367C315.448 97.9079 315.345 98.3894 315.398 98.7222C315.423 98.883 315.494 99.0895 315.689 99.1561C316.203 99.3333 316.702 98.8187 316.814 98.5049C316.96 98.0465 317.032 97.5663 317.025 97.0838Z" fill="white" stroke="black" stroke-miterlimit="10"/>
<path d="M354 113.03C353.471 113.03 352.947 112.925 352.458 112.723C351.969 112.52 351.525 112.224 351.151 111.849C350.776 111.475 350.48 111.031 350.277 110.542C350.075 110.053 349.97 109.529 349.97 109H349.03C349.03 110.069 348.605 111.094 347.849 111.849C347.094 112.605 346.069 113.03 345 113.03V113.97C346.069 113.97 347.094 114.395 347.849 115.151C348.605 115.906 349.03 116.931 349.03 118H349.97C349.97 117.471 350.075 116.947 350.277 116.458C350.48 115.969 350.776 115.525 351.151 115.151C351.525 114.776 351.969 114.48 352.458 114.277C352.947 114.075 353.471 113.97 354 113.97V113.03Z" fill="#FFE476" stroke="black" stroke-miterlimit="10"/>
<path d="M325 117.925C323.812 117.925 322.673 117.406 321.834 116.483C320.994 115.559 320.522 114.306 320.522 113H319.478C319.478 114.306 319.006 115.559 318.166 116.483C317.326 117.406 316.188 117.925 315 117.925V119.075C316.188 119.075 317.326 119.594 318.166 120.517C319.006 121.441 319.478 122.694 319.478 124H320.522C320.522 122.694 320.994 121.441 321.834 120.517C322.674 119.594 323.812 119.075 325 119.075L325 117.925Z" fill="#FFE476" stroke="black" stroke-miterlimit="10"/>
<path d="M358.062 105C357.142 105 356.398 104.373 356.07 103.324C356.057 103.284 356.046 103.245 356.035 103.204C355.826 103.598 355.714 104.04 355.708 104.49L354 104.513C353.985 103.528 354.418 101.693 356.032 100.843C356.282 99.7748 356.862 98.7196 357.804 98L358.812 99.4402C358.468 99.7055 358.186 100.048 357.988 100.443C359.088 100.587 359.76 101.436 359.945 102.336C360.091 103.046 359.943 103.773 359.548 104.283C359.369 104.513 359.142 104.696 358.885 104.821C358.627 104.945 358.346 105.006 358.062 105ZM357.6 102.208C357.607 102.399 357.639 102.588 357.693 102.77C357.756 102.973 357.872 103.216 358.062 103.216C358.179 103.216 358.207 103.18 358.22 103.162C358.258 103.095 358.283 103.02 358.292 102.943C358.302 102.865 358.296 102.786 358.276 102.711C358.224 102.46 358.063 102.189 357.6 102.208V102.208Z" fill="white" stroke="black" stroke-miterlimit="10"/>
<path d="M313.985 109.794L313.343 110.798L317.503 113.461L318.146 112.456L313.985 109.794Z" fill="white" stroke="black" stroke-miterlimit="10"/>
<path d="M283.428 105.394L282.786 106.398L286.946 109.061L287.588 108.057L283.428 105.394Z" fill="white" stroke="black" stroke-miterlimit="10"/>
<path d="M338.161 100.426L339.004 101.269L342.497 97.7761L341.654 96.9331L338.161 100.426Z" fill="white" stroke="black" stroke-miterlimit="10"/>
<path d="M336.083 118.852L335.12 118.927L335.321 121.505L336.283 121.431L336.083 118.852Z" fill="white" stroke="black" stroke-miterlimit="10"/>
<path d="M348.06 98.5516L347.098 98.6265L347.298 101.205L348.261 101.13L348.06 98.5516Z" fill="white" stroke="black" stroke-miterlimit="10"/>
<path d="M304.489 102.737L303.576 102.424L302.738 104.87L303.652 105.183L304.489 102.737Z" fill="white" stroke="black" stroke-miterlimit="10"/>
<path d="M284.648 110.019L283.933 110.668L285.672 112.582L286.387 111.933L284.648 110.019Z" fill="white" stroke="black" stroke-miterlimit="10"/>
<path d="M332 103C332 103 334.81 92.8439 340 87" stroke="black" stroke-miterlimit="10"/>
<path d="M311 105C311 105 313.52 114.155 312.903 125" stroke="black" stroke-miterlimit="10"/>
<path d="M333.015 125C333.015 125 332.697 112.024 335 105" stroke="black" stroke-miterlimit="10"/>
<path d="M363.082 186.072L328.668 195.878C327.892 196.099 327.062 196.018 326.343 195.65C325.625 195.283 325.072 194.657 324.795 193.898L310.194 153.859C310.02 153.381 309.962 152.869 310.024 152.365C310.087 151.861 310.269 151.378 310.554 150.958L313.397 146.778C313.818 146.159 314.442 145.708 315.161 145.503L347.995 136.123C348.761 135.904 349.58 135.98 350.292 136.334C351.005 136.689 351.559 137.298 351.847 138.041L367.783 179.123C368.004 179.692 368.057 180.311 367.938 180.91C367.819 181.508 367.532 182.059 367.11 182.499L364.512 185.211C364.12 185.62 363.627 185.917 363.082 186.072Z" fill="#FFC9F7" stroke="black" stroke-miterlimit="10"/>
<path d="M314 146L330.467 188.417C330.689 188.99 331.119 189.461 331.672 189.737C332.224 190.013 332.86 190.074 333.456 189.909L368 180.357" stroke="black" stroke-miterlimit="10"/>
<path d="M321 164.249L358.046 153L362 162.856L324.801 174L321 164.249Z" fill="white" stroke="black" stroke-miterlimit="10"/>
<path d="M337.133 162.173C337.133 162.173 332.494 153.871 325.422 153.099C321.309 152.65 319.318 154.922 315.301 154.884C309.717 154.831 305.759 147 305.759 147L306.916 152.95L302 151.016C302 151.016 305.611 159.221 312.781 160.387C316.639 161.014 321.092 158.726 324.843 158.603C331.37 158.39 338 165 338 165L337.133 162.173Z" fill="white" stroke="black" stroke-miterlimit="10"/>
<path d="M337.154 162.498C337.154 162.498 333.643 159.178 326.331 161.164C320.541 162.737 314.838 169.276 308.883 169.276C297.678 169.277 294.862 150 294.862 150L292.461 155.179L288 151.464C288 151.464 291.869 177 309.308 177C318.601 177 321.886 169.68 328.179 166.622C332.947 164.306 339 167.022 339 167.022L337.154 162.498Z" fill="white" stroke="black" stroke-miterlimit="10"/>
<path d="M344 162.549L342.67 140C342.586 139.175 342.321 138.38 341.896 137.672C341.47 136.964 340.894 136.361 340.209 135.907C339.524 135.454 338.749 135.161 337.938 135.05C337.128 134.939 336.303 135.013 335.525 135.267L326.82 138.099C323.282 139.25 321.867 143.554 324.014 146.628L338.754 164L344 162.549Z" fill="white" stroke="black" stroke-miterlimit="10"/>
<path d="M338 162.615L340.138 185.158C340.255 185.982 340.562 186.771 341.039 187.467C341.515 188.163 342.149 188.748 342.893 189.182C343.637 189.615 344.473 189.884 345.341 189.97C346.208 190.056 347.085 189.956 347.907 189.679L357.096 186.573C360.829 185.311 362.201 180.956 359.814 177.943L343.545 161L338 162.615Z" fill="white" stroke="black" stroke-miterlimit="10"/>
<path d="M343.075 167.662C339.811 168.939 338.769 166.403 337.394 163.31C336.018 160.217 334.831 157.738 338.095 156.46C341.359 155.183 345.12 156.655 346.495 159.748C347.87 162.841 346.339 166.384 343.075 167.662Z" fill="white" stroke="black" stroke-miterlimit="10"/>
<path d="M339.084 136.005C339.084 136.005 335 135.717 335 139.37C335 141.242 335.872 143.721 336.375 145.359C336.803 146.751 340 156 340 156" fill="white"/>
<path d="M339.084 136.005C339.084 136.005 335 135.717 335 139.37C335 141.242 335.872 143.721 336.375 145.359C336.803 146.751 340 156 340 156" stroke="black" stroke-miterlimit="10"/>
<path d="M325 180.293C325 180.293 322.627 183.551 319.964 181.065C318.598 179.791 317.342 177.451 316.467 175.959C315.722 174.691 311 166 311 166" fill="white"/>
<path d="M325 180.293C325 180.293 322.627 183.551 319.964 181.065C318.598 179.791 317.342 177.451 316.467 175.959C315.722 174.691 311 166 311 166" stroke="black" stroke-miterlimit="10"/>
<rect x="23.7979" y="118.863" width="222.25" height="56.25" transform="rotate(19.4643 23.7979 118.863)" fill="#72CA7C"/>
<rect x="23.7979" y="118.863" width="222.25" height="56.25" transform="rotate(19.4643 23.7979 118.863)" stroke="black" stroke-width="0.75"/>
<path d="M44.9422 151.135C45.6603 151.389 46.2704 151.729 46.7724 152.154C47.2818 152.577 47.6655 153.039 47.9234 153.54C48.1812 154.041 48.3539 154.59 48.4414 155.187C48.5308 155.778 48.5369 156.367 48.4597 156.955C48.3843 157.537 48.2412 158.127 48.0304 158.724C47.8195 159.32 47.5594 159.871 47.2501 160.377C46.9428 160.878 46.5686 161.33 46.1277 161.733C45.6868 162.137 45.2076 162.455 44.6901 162.689C44.1745 162.917 43.5858 163.035 42.9241 163.043C42.2679 163.054 41.5807 162.932 40.8625 162.678C40.0946 162.407 39.4423 162.046 38.9055 161.595C38.3743 161.146 37.9838 160.651 37.7341 160.109C37.4864 159.562 37.3447 158.986 37.3092 158.384C37.2793 157.783 37.3569 157.176 37.5421 156.564L39.2409 157.165C39.1444 157.684 39.0996 158.118 39.1062 158.469C39.1184 158.821 39.1976 159.16 39.3437 159.485C39.4973 159.806 39.7434 160.086 40.082 160.324C40.428 160.558 40.8883 160.776 41.4629 160.979C42.5623 161.368 43.4687 161.406 44.1823 161.092C44.8978 160.773 45.5036 160.062 45.9997 158.957L41.7237 157.445L42.3241 155.747L46.6001 157.258C46.9084 156.087 46.8834 155.155 46.5252 154.463C46.169 153.765 45.4412 153.222 44.3418 152.834C43.7672 152.631 43.2708 152.514 42.8525 152.484C42.4398 152.457 42.0726 152.519 41.7511 152.673C41.4351 152.829 41.1607 153.042 40.9279 153.314C40.7025 153.583 40.4643 153.949 40.2132 154.413L38.5144 153.813C38.7548 153.221 39.0755 152.7 39.4765 152.251C39.8829 151.805 40.3536 151.449 40.8883 151.184C41.425 150.914 42.041 150.771 42.7362 150.756C43.4389 150.737 44.1742 150.863 44.9422 151.135ZM55.9842 168.023L54.3677 161.914L52.8181 161.366L51.0784 166.289L49.3796 165.688L53.4593 154.145L55.1581 154.745L53.4184 159.668L53.8079 159.805C54.1228 159.917 54.4241 159.961 54.7117 159.938C55.0069 159.912 55.2733 159.835 55.5109 159.708C55.7541 159.583 55.9942 159.422 56.2312 159.226C56.4682 159.03 56.7008 158.82 56.9291 158.597C57.1629 158.375 57.3967 158.153 57.6305 157.931C57.8698 157.711 58.1245 157.509 58.3947 157.325C58.6704 157.142 58.9547 156.997 59.2475 156.89C59.546 156.784 59.8804 156.734 60.2509 156.741C60.6289 156.744 61.0251 156.819 61.4394 156.965L60.8391 158.664C60.5297 158.555 60.2346 158.528 59.9537 158.584C59.6749 158.635 59.4283 158.743 59.214 158.91C58.9998 159.077 58.7673 159.277 58.5166 159.512C58.2714 159.748 58.0393 159.983 57.8201 160.216C57.6065 160.452 57.3429 160.679 57.0295 160.897C56.7236 161.112 56.4066 161.271 56.0786 161.372L58.0393 168.749L55.9842 168.023ZM68.9916 171.753C67.9482 171.962 66.852 171.863 65.7029 171.457C64.5538 171.051 63.6391 170.439 62.9589 169.621C62.2806 168.797 61.8728 167.876 61.7354 166.858C61.5999 165.834 61.7236 164.781 62.1063 163.698C62.3913 162.892 62.7877 162.183 63.2953 161.574C63.8029 160.964 64.3832 160.482 65.0364 160.129C65.697 159.772 66.4363 159.57 67.2544 159.524C68.078 159.479 68.9207 159.609 69.7826 159.914C70.6444 160.218 71.3789 160.646 71.9861 161.196C72.5989 161.748 73.0473 162.37 73.3314 163.06C73.623 163.748 73.7746 164.488 73.7863 165.281C73.798 166.075 73.6613 166.875 73.3763 167.681C72.9936 168.764 72.428 169.661 71.6795 170.372C70.9329 171.078 70.037 171.538 68.9916 171.753ZM63.805 164.299C62.8464 167.011 63.6791 168.831 66.3033 169.758C68.9274 170.686 70.7188 169.793 71.6775 167.081C72.6381 164.363 71.8063 162.54 69.1822 161.613C66.558 160.685 64.7657 161.58 63.805 164.299ZM87.2742 166.096L83.1946 177.639L81.4958 177.039L84.9751 167.194L80.7157 165.689C80.4401 166.486 80.1971 167.165 79.9869 167.724C79.7787 168.278 79.5161 168.916 79.1993 169.637C78.8879 170.359 78.5927 170.957 78.3136 171.43C78.0401 171.905 77.7165 172.381 77.3428 172.858C76.9712 173.33 76.5979 173.683 76.223 173.917C75.8537 174.153 75.4358 174.307 74.9694 174.378C74.5085 174.451 74.0322 174.401 73.5405 174.227L74.1409 172.528C74.3232 172.593 74.5044 172.617 74.6845 172.599C74.8645 172.582 75.038 172.522 75.2047 172.42C75.379 172.313 75.548 172.187 75.7119 172.04C75.8777 171.887 76.0416 171.687 76.2036 171.44C76.3711 171.194 76.5303 170.946 76.6812 170.695C76.8341 170.438 76.9925 170.131 77.1565 169.772C77.3224 169.408 77.4749 169.064 77.6142 168.741C77.7609 168.414 77.9179 168.031 78.0851 167.593C78.2543 167.149 78.4044 166.742 78.5352 166.372C78.6715 166.004 78.8266 165.574 79.0003 165.083L79.6007 163.384L87.2742 166.096ZM95.3402 181.065C94.2968 181.274 93.2006 181.175 92.0515 180.769C90.9024 180.363 89.9877 179.751 89.3075 178.933C88.6292 178.109 88.2213 177.188 88.084 176.17C87.9485 175.146 88.0722 174.093 88.4548 173.01C88.7399 172.204 89.1362 171.495 89.6439 170.886C90.1515 170.276 90.7318 169.794 91.3849 169.441C92.0455 169.084 92.7849 168.882 93.603 168.836C94.4266 168.791 95.2693 168.921 96.1311 169.226C96.993 169.53 97.7275 169.958 98.3347 170.508C98.9475 171.06 99.3959 171.682 99.68 172.372C99.9716 173.06 100.123 173.8 100.135 174.593C100.147 175.387 100.01 176.187 99.7248 176.993C99.3422 178.076 98.7766 178.973 98.0281 179.684C97.2815 180.39 96.3856 180.85 95.3402 181.065ZM90.1536 173.611C89.195 176.323 90.0277 178.143 92.6519 179.071C95.276 179.998 97.0674 179.105 98.0261 176.393C98.9867 173.675 98.1549 171.852 95.5308 170.925C92.9066 169.997 91.1142 170.893 90.1536 173.611ZM112.14 174.883L111.539 176.582L106.244 174.711L102.765 184.556L101.066 183.955L105.145 172.412L112.14 174.883ZM122.496 178.544L124.195 179.144L120.115 190.688L118.417 190.087L121.284 181.974L121.019 181.881L112.649 188.049L110.95 187.448L115.03 175.905L116.729 176.505L113.862 184.618L114.135 184.715L122.496 178.544ZM135.14 183.012L136.839 183.613L132.759 195.156L131.061 194.556L132.68 189.973L129.747 188.936C129.156 188.728 128.648 188.483 128.225 188.203C127.81 187.919 127.474 187.621 127.219 187.307C126.97 186.989 126.79 186.621 126.677 186.202C126.569 185.785 126.512 185.376 126.504 184.975C126.497 184.575 126.545 184.104 126.649 183.563C126.761 183.018 126.888 182.51 127.03 182.038C127.173 181.561 127.361 180.996 127.591 180.344L129.29 180.945C129.083 181.53 128.92 182.001 128.8 182.356C128.686 182.714 128.572 183.099 128.457 183.512C128.344 183.92 128.273 184.243 128.245 184.481C128.222 184.722 128.218 184.978 128.234 185.251C128.249 185.524 128.306 185.743 128.403 185.907C128.502 186.067 128.635 186.235 128.802 186.412C128.977 186.586 129.189 186.735 129.436 186.86C129.69 186.987 129.993 187.113 130.347 187.238L133.281 188.274L135.14 183.012ZM148.016 187.563L149.715 188.163L145.635 199.707L143.937 199.106L145.615 194.358L139.864 192.326L138.186 197.074L136.487 196.474L140.566 184.93L142.265 185.53L140.464 190.627L146.215 192.659L148.016 187.563ZM157.938 203.188C156.895 203.397 155.799 203.299 154.65 202.893C153.501 202.486 152.586 201.874 151.906 201.056C151.227 200.232 150.82 199.311 150.682 198.293C150.547 197.269 150.67 196.216 151.053 195.134C151.338 194.327 151.734 193.619 152.242 193.009C152.75 192.399 153.33 191.917 153.983 191.564C154.644 191.207 155.383 191.005 156.201 190.959C157.025 190.915 157.868 191.045 158.729 191.349C159.591 191.654 160.326 192.081 160.933 192.631C161.546 193.183 161.994 193.805 162.278 194.496C162.57 195.183 162.721 195.923 162.733 196.717C162.745 197.51 162.608 198.31 162.323 199.117C161.94 200.199 161.375 201.096 160.626 201.807C159.88 202.513 158.984 202.973 157.938 203.188ZM152.752 195.734C151.793 198.446 152.626 200.266 155.25 201.194C157.874 202.121 159.666 201.229 160.624 198.516C161.585 195.798 160.753 193.975 158.129 193.048C155.505 192.121 153.712 193.016 152.752 195.734ZM164.765 201.909C164.842 201.321 164.986 200.729 165.197 200.132C165.408 199.536 165.667 198.987 165.974 198.487C166.284 197.981 166.659 197.526 167.1 197.123C167.542 196.713 168.022 196.395 168.537 196.167C169.053 195.939 169.639 195.82 170.295 195.809C170.959 195.795 171.65 195.915 172.368 196.169C173.136 196.441 173.784 196.803 174.313 197.258C174.85 197.708 175.242 198.207 175.49 198.755C175.74 199.297 175.88 199.868 175.91 200.469C175.945 201.072 175.87 201.68 175.685 202.292L173.986 201.691C174.083 201.172 174.125 200.736 174.113 200.384C174.108 200.028 174.029 199.69 173.875 199.368C173.727 199.048 173.481 198.769 173.137 198.529C172.798 198.291 172.342 198.071 171.767 197.868C170.546 197.436 169.556 197.444 168.795 197.89C168.042 198.332 167.409 199.28 166.896 200.733C166.384 202.18 166.281 203.315 166.587 204.138C166.9 204.957 167.667 205.582 168.888 206.014C169.463 206.217 169.956 206.335 170.366 206.368C170.785 206.398 171.152 206.335 171.468 206.18C171.791 206.021 172.066 205.807 172.291 205.538C172.522 205.272 172.763 204.907 173.014 204.442L174.713 205.043C174.472 205.635 174.149 206.155 173.742 206.601C173.342 207.05 172.873 207.41 172.336 207.68C171.801 207.944 171.183 208.083 170.483 208.097C169.788 208.112 169.056 207.984 168.288 207.713C167.57 207.459 166.956 207.121 166.447 206.698C165.943 206.278 165.562 205.817 165.304 205.316C165.048 204.809 164.875 204.26 164.786 203.669C164.696 203.078 164.689 202.491 164.765 201.909ZM188.575 201.897L187.975 203.596L184.428 202.342L180.949 212.187L179.25 211.587L182.729 201.742L179.182 200.489L179.783 198.79L188.575 201.897ZM194.23 209.05C194.765 209.24 195.224 209.473 195.604 209.751C195.985 210.028 196.275 210.323 196.475 210.636C196.682 210.946 196.824 211.285 196.899 211.653C196.981 212.018 197.002 212.38 196.962 212.738C196.928 213.099 196.845 213.467 196.712 213.843C196.579 214.219 196.413 214.558 196.213 214.86C196.018 215.164 195.773 215.435 195.478 215.672C195.19 215.906 194.868 216.081 194.51 216.197C194.159 216.309 193.749 216.354 193.279 216.33C192.808 216.307 192.305 216.201 191.769 216.011L187.543 214.518L191.623 202.974L193.322 203.575L191.702 208.157L194.23 209.05ZM192.37 214.313C193.093 214.568 193.656 214.621 194.057 214.471C194.466 214.317 194.787 213.908 195.021 213.246C195.256 212.583 195.261 212.066 195.038 211.695C194.823 211.32 194.353 211.005 193.629 210.749L191.102 209.856L189.842 213.419L192.37 214.313Z" fill="black"/>
<rect x="151.338" y="35.2424" width="205.25" height="56.25" transform="rotate(-9.60871 151.338 35.2424)" fill="#72CA7C"/>
<rect x="151.338" y="35.2424" width="205.25" height="56.25" transform="rotate(-9.60871 151.338 35.2424)" stroke="black" stroke-width="0.75"/>
<path d="M184.919 53.2719C185.849 53.1144 186.646 53.0806 187.309 53.1704C187.972 53.2602 188.504 53.4732 188.906 53.8093C189.312 54.1387 189.623 54.5347 189.838 54.9975C190.052 55.4545 190.217 56.0239 190.332 56.7056C190.423 57.2429 190.463 57.7235 190.451 58.1473C190.446 58.5702 190.367 58.9817 190.215 59.3819C190.068 59.7811 189.842 60.1284 189.535 60.424C189.228 60.7137 188.808 60.9749 188.277 61.2074C187.745 61.4342 187.104 61.6112 186.353 61.7383L183.969 62.1417L184.58 65.7467L182.803 66.0474L180.76 53.976L184.919 53.2719ZM186.052 59.9618C186.676 59.8562 187.164 59.7379 187.516 59.607C187.868 59.476 188.14 59.2933 188.332 59.0587C188.525 58.8241 188.633 58.5503 188.657 58.2372C188.681 57.924 188.65 57.5133 188.564 57.0049C188.476 56.4849 188.369 56.0811 188.243 55.7934C188.117 55.5057 187.925 55.2856 187.668 55.1331C187.409 54.9748 187.093 54.8947 186.718 54.8928C186.349 54.8899 185.85 54.9417 185.22 55.0483L182.837 55.4518L183.669 60.3653L186.052 59.9618ZM202.144 62.7733L200.812 60.1729L195.872 61.0092L195.471 63.9029L193.608 64.2183L195.36 51.5043L198.167 51.029L204.007 62.4579L202.144 62.7733ZM196.126 59.1388L199.957 58.4903L197.228 53.167L196.951 53.214L196.126 59.1388ZM206.338 57.8646L208.115 57.5638C208.263 58.442 208.545 59.0153 208.959 59.284C209.373 59.5527 210.042 59.6088 210.966 59.4523C211.867 59.2997 212.479 59.0535 212.802 58.7136C213.131 58.3727 213.242 57.8874 213.135 57.2577C213.023 56.5933 212.724 56.1654 212.24 55.974C211.761 55.7758 211.048 55.7569 210.1 55.9173L209.138 56.0802L208.838 54.3037L209.799 54.1408C210.707 53.9873 211.306 53.7551 211.598 53.4441C211.896 53.1322 211.99 52.6499 211.879 51.9971C211.719 51.0496 210.934 50.6952 209.524 50.9338C208.605 51.0893 207.991 51.3539 207.679 51.7275C207.374 52.1001 207.289 52.685 207.424 53.4823L205.647 53.783C205.574 53.3497 205.546 52.9414 205.565 52.5579C205.588 52.1677 205.675 51.7875 205.826 51.4172C205.977 51.0411 206.188 50.7083 206.459 50.4186C206.737 50.1279 207.11 49.8717 207.577 49.6499C208.045 49.4282 208.594 49.264 209.223 49.1573C209.778 49.0635 210.291 49.0419 210.763 49.0927C211.235 49.1378 211.632 49.2369 211.955 49.3902C212.277 49.5377 212.559 49.7278 212.8 49.9603C213.041 50.1928 213.226 50.4408 213.354 50.7044C213.487 50.9613 213.577 51.2341 213.626 51.523C213.686 51.8754 213.707 52.1927 213.689 52.475C213.671 52.7515 213.601 53.0248 213.48 53.2948C213.365 53.5581 213.17 53.7932 212.896 54C212.621 54.2011 212.266 54.371 211.832 54.5099L211.879 54.7872C212.392 54.7656 212.837 54.8122 213.213 54.9268C213.595 55.0405 213.9 55.2116 214.129 55.4403C214.358 55.669 214.534 55.9214 214.658 56.1976C214.787 56.4669 214.882 56.7807 214.942 57.1389C215.003 57.4971 215.017 57.8424 214.984 58.1748C214.951 58.5072 214.856 58.8384 214.698 59.1682C214.544 59.4913 214.327 59.7866 214.045 60.0542C213.763 60.3159 213.384 60.5524 212.909 60.7636C212.438 60.9681 211.891 61.1231 211.267 61.2288C210.637 61.3354 210.065 61.3609 209.55 61.3054C209.035 61.2441 208.598 61.119 208.239 60.9302C207.88 60.7413 207.57 60.4907 207.309 60.1783C207.048 59.8601 206.84 59.5119 206.687 59.1338C206.534 58.7556 206.418 58.3325 206.338 57.8646ZM224.967 46.492L226.744 46.1913L228.787 58.2627L227.011 58.5634L226.17 53.5979L220.156 54.6161L220.997 59.5815L219.22 59.8823L217.177 47.8109L218.953 47.5101L219.855 52.8396L225.869 51.8214L224.967 46.492ZM241.232 55.3269C240.422 56.0167 239.416 56.4634 238.214 56.6668C237.012 56.8702 235.915 56.7796 234.923 56.3949C233.93 56.0044 233.126 55.3977 232.511 54.5747C231.896 53.7459 231.492 52.7653 231.3 51.633C231.157 50.7896 231.16 49.978 231.307 49.1983C231.454 48.4186 231.727 47.7157 232.127 47.0895C232.53 46.4566 233.079 45.9211 233.771 45.4829C234.469 45.0438 235.269 44.748 236.17 44.5954C237.072 44.4428 237.921 44.4594 238.719 44.6452C239.523 44.83 240.217 45.1553 240.801 45.621C241.39 46.0799 241.882 46.6533 242.278 47.341C242.673 48.0288 242.943 48.7944 243.086 49.6378C243.277 50.7701 243.219 51.8289 242.91 52.8142C242.601 53.7937 242.041 54.6312 241.232 55.3269ZM233.077 51.3323C233.557 54.1689 235.169 55.3549 237.913 54.8903C240.657 54.4257 241.789 52.7752 241.309 49.9386C240.828 47.0962 239.215 45.9073 236.471 46.3719C233.727 46.8364 232.595 48.4899 233.077 51.3323ZM256.023 52.8229C255.212 53.5127 254.206 53.9594 253.005 54.1628C251.803 54.3662 250.706 54.2756 249.714 53.8909C248.721 53.5004 247.917 52.8937 247.302 52.0707C246.686 51.2419 246.283 50.2614 246.091 49.129C245.948 48.2856 245.95 47.474 246.098 46.6943C246.245 45.9147 246.518 45.2117 246.917 44.5856C247.321 43.9526 247.869 43.4171 248.562 42.9789C249.26 42.5398 250.06 42.244 250.961 42.0914C251.862 41.9388 252.712 41.9555 253.51 42.1413C254.314 42.3261 255.008 42.6513 255.592 43.117C256.18 43.576 256.673 44.1493 257.068 44.837C257.464 45.5248 257.733 46.2904 257.876 47.1338C258.068 48.2662 258.009 49.325 257.701 50.3102C257.391 51.2897 256.832 52.1273 256.023 52.8229ZM247.867 48.8283C248.348 51.6649 249.96 52.8509 252.704 52.3863C255.448 51.9218 256.58 50.2712 256.1 47.4346C255.619 44.5922 254.006 43.4033 251.262 43.8679C248.518 44.3325 247.386 45.9859 247.867 48.8283ZM265.618 44.5395C266.317 44.4212 266.937 44.4114 267.477 44.5102C268.021 44.6022 268.469 44.7909 268.82 45.0761C269.176 45.3545 269.461 45.6986 269.673 46.1084C269.884 46.5125 270.035 46.9831 270.126 47.5204C270.216 48.0577 270.229 48.5547 270.164 49.0115C270.098 49.4625 269.943 49.8809 269.699 50.2669C269.46 50.646 269.099 50.9716 268.616 51.2435C268.138 51.5087 267.55 51.7004 266.851 51.8187L262.431 52.5669L260.388 40.4955L267.494 39.2926L267.794 41.069L262.465 41.9713L262.975 44.987L265.618 44.5395ZM266.55 50.0423C267.307 49.9141 267.824 49.6869 268.102 49.3606C268.384 49.0276 268.466 48.5144 268.349 47.8212C268.232 47.1279 267.985 46.6734 267.61 46.4576C267.24 46.2351 266.676 46.1879 265.919 46.316L263.276 46.7634L263.907 50.4897L266.55 50.0423ZM276.565 37.7568C277.495 37.5994 278.292 37.5656 278.954 37.6554C279.617 37.7452 280.15 37.9582 280.551 38.2943C280.958 38.6236 281.268 39.0197 281.483 39.4825C281.697 39.9395 281.862 40.5089 281.978 41.1906C282.069 41.7279 282.108 42.2084 282.097 42.6323C282.091 43.0552 282.012 43.4667 281.86 43.8669C281.714 44.266 281.487 44.6134 281.181 44.909C280.873 45.1987 280.454 45.4599 279.923 45.6924C279.391 45.9192 278.749 46.0961 277.998 46.2233L275.615 46.6267L276.225 50.2317L274.449 50.5324L272.405 38.461L276.565 37.7568ZM277.697 44.4468C278.321 44.3412 278.809 44.2229 279.162 44.092C279.514 43.961 279.786 43.7783 279.978 43.5437C280.17 43.3091 280.278 43.0353 280.303 42.7221C280.327 42.409 280.296 41.9983 280.21 41.4899C280.122 40.9699 280.015 40.5661 279.889 40.2784C279.763 39.9907 279.571 39.7706 279.314 39.6181C279.055 39.4598 278.738 39.3797 278.364 39.3778C277.995 39.3749 277.495 39.4267 276.866 39.5333L274.483 39.9368L275.314 44.8502L277.697 44.4468ZM293.789 47.2583L292.458 44.6579L287.518 45.4941L287.117 48.3879L285.253 48.7033L287.005 35.9893L289.813 35.514L295.652 46.9428L293.789 47.2583ZM287.772 43.6238L291.602 42.9753L288.874 37.652L288.596 37.6989L287.772 43.6238ZM297.984 42.3496L299.76 42.0488C299.909 42.9269 300.19 43.5003 300.604 43.769C301.018 44.0377 301.687 44.0937 302.612 43.9373C303.513 43.7847 304.125 43.5384 304.448 43.1985C304.776 42.8577 304.887 42.3724 304.781 41.7427C304.668 41.0783 304.37 40.6504 303.886 40.459C303.407 40.2608 302.693 40.2419 301.746 40.4023L300.784 40.5652L300.483 38.7887L301.445 38.6258C302.352 38.4723 302.952 38.24 303.244 37.9291C303.541 37.6172 303.635 37.1349 303.525 36.482C303.364 35.5346 302.579 35.1802 301.17 35.4188C300.251 35.5743 299.636 35.8389 299.325 36.2125C299.02 36.5851 298.934 37.17 299.069 37.9672L297.293 38.268C297.22 37.8347 297.192 37.4263 297.21 37.0429C297.233 36.6527 297.321 36.2725 297.472 35.9022C297.622 35.5261 297.833 35.1933 298.105 34.9036C298.383 34.6129 298.755 34.3567 299.223 34.1349C299.69 33.9131 300.239 33.7489 300.869 33.6423C301.423 33.5484 301.937 33.5269 302.409 33.5777C302.88 33.6227 303.277 33.7219 303.6 33.8752C303.922 34.0227 304.204 34.2127 304.446 34.4452C304.687 34.6777 304.872 34.9258 304.999 35.1894C305.132 35.4463 305.223 35.7191 305.272 36.008C305.331 36.3604 305.352 36.6777 305.335 36.96C305.316 37.2365 305.247 37.5098 305.126 37.7798C305.01 38.0431 304.815 38.2781 304.541 38.485C304.266 38.686 303.912 38.856 303.478 38.9949L303.525 39.2722C304.038 39.2506 304.483 39.2972 304.859 39.4118C305.24 39.5255 305.546 39.6966 305.774 39.9253C306.003 40.154 306.18 40.4064 306.304 40.6825C306.433 40.9519 306.527 41.2657 306.588 41.6239C306.649 41.9821 306.663 42.3274 306.63 42.6598C306.597 42.9922 306.501 43.3233 306.343 43.6532C306.19 43.9763 305.972 44.2716 305.691 44.5391C305.408 44.8009 305.029 45.0374 304.554 45.2486C304.084 45.4531 303.536 45.6081 302.912 45.7137C302.283 45.8203 301.711 45.8459 301.196 45.7904C300.681 45.7291 300.243 45.604 299.885 45.4151C299.526 45.2263 299.216 44.9757 298.955 44.6633C298.693 44.3451 298.486 43.9969 298.332 43.6187C298.179 43.2406 298.063 42.8175 297.984 42.3496ZM316.63 30.974L318.407 30.6733L320.45 42.7447L318.674 43.0454L317.237 34.5617L316.96 34.6086L312.642 44.0665L310.866 44.3673L308.822 32.2959L310.599 31.9951L312.035 40.4789L312.321 40.4305L316.63 30.974ZM330.56 30.4431L324.564 31.4583L325.105 34.656L329.689 33.8799L329.99 35.6564L325.406 36.4325L326.006 39.9768L332.002 38.9616L332.303 40.7381L324.53 42.054L322.486 29.9826L330.26 28.6667L330.56 30.4431Z" fill="black"/>
</svg>
