<svg width="872" height="444" viewBox="0 0 872 444" fill="none" xmlns="http://www.w3.org/2000/svg">
<rect x="528.421" y="249.702" width="125.25" height="50.25" transform="rotate(-7.4691 528.421 249.702)" fill="#72CA7C"/>
<rect x="528.421" y="249.702" width="125.25" height="50.25" transform="rotate(-7.4691 528.421 249.702)" stroke="black" stroke-width="0.75"/>
<path d="M564.856 265.485L565.582 271.017L562.494 271.422C559.567 271.806 559.263 270.593 558.699 266.292L556.914 266.526C557.476 270.809 558.302 273.787 562.728 273.207L565.816 272.802L566.447 277.621L568.232 277.387L566.641 265.251L564.856 265.485ZM579.264 263.596L570.02 264.808L570.254 266.592L573.984 266.103L575.341 276.455L577.125 276.221L575.768 265.869L579.498 265.38L579.264 263.596ZM590.7 263.912L590.466 262.127L582.649 263.152L584.24 275.288L592.057 274.263L591.823 272.478L585.791 273.269L585.323 269.7L589.928 269.096L589.694 267.311L585.089 267.915L584.668 264.703L590.7 263.912ZM602.064 260.606L602.766 265.961L596.716 266.754L596.014 261.4L594.229 261.634L595.82 273.77L597.605 273.536L596.95 268.539L603 267.745L603.655 272.743L605.44 272.509L603.849 260.372L602.064 260.606ZM615.805 258.805L611.141 268.094L610.856 268.131L609.737 259.6L607.953 259.834L609.544 271.971L611.328 271.737L615.993 262.448L616.278 262.41L617.397 270.941L619.181 270.707L617.59 258.571L615.805 258.805ZM629.745 258.793L629.511 257.008L621.694 258.033L623.285 270.169L631.102 269.144L630.868 267.36L624.835 268.15L624.368 264.581L628.972 263.977L628.738 262.193L624.134 262.796L623.712 259.584L629.745 258.793Z" fill="black"/>
<rect x="323.502" y="167.528" width="371.25" height="50.25" transform="rotate(39.5158 323.502 167.528)" fill="#72CA7C"/>
<rect x="323.502" y="167.528" width="371.25" height="50.25" transform="rotate(39.5158 323.502 167.528)" stroke="black" stroke-width="0.75"/>
<path d="M336.61 204.764L326.636 207.69L326.414 207.507L331.888 200.87L330.5 199.724L322.712 209.167L324.1 210.312L334.074 207.385L334.296 207.569L328.822 214.206L330.21 215.352L337.998 205.909L336.61 204.764ZM335.898 214.677C334.444 216.44 334.056 218.523 336.583 220.608C339.11 222.692 340.967 222.054 342.078 220.707C342.937 219.665 343.301 218.403 341.848 216.854L342.032 216.632C343.622 217.617 344.617 217.062 345.465 216.034C346.347 214.965 346.621 213.021 344.371 211.165C341.844 209.081 339.873 209.858 338.533 211.483L339.921 212.628C340.952 211.378 341.795 211.374 343.226 212.554C344.378 213.504 344.535 214.333 343.962 215.028C343.126 216.041 342.409 216.033 340.979 214.854L340.229 214.235L339.084 215.624L339.833 216.242C341.264 217.422 341.686 218.353 340.804 219.422C340.002 220.395 339.158 220.399 337.728 219.219C336.298 218.039 336.142 217.211 337.287 215.822L335.898 214.677ZM347.003 229.202C349.891 231.584 353.331 230.922 355.507 228.283C357.683 225.645 357.679 222.142 354.791 219.759C351.903 217.377 348.463 218.04 346.287 220.678C344.11 223.317 344.114 226.82 347.003 229.202ZM348.148 227.813C346.287 226.279 345.602 224.337 347.675 221.824C349.748 219.31 351.785 219.613 353.646 221.148C355.492 222.671 356.191 224.625 354.118 227.138C352.045 229.651 349.995 229.337 348.148 227.813ZM362.545 232.455L360.476 230.749L362.424 228.388L366.589 231.824L367.735 230.435L362.18 225.854L354.392 235.297L357.85 238.149C360.099 240.004 361.899 239.435 363.239 237.81C364.579 236.186 364.795 234.311 362.545 232.455ZM358.995 236.76L356.926 235.053L359.331 232.137L361.4 233.844C362.553 234.795 362.766 235.554 361.85 236.665C360.934 237.776 360.148 237.711 358.995 236.76ZM374.846 236.301L371.597 233.621L363.809 243.063L365.197 244.209L367.522 241.39L369.383 242.925C372.382 245.399 374.162 244.627 375.8 242.641C377.438 240.655 377.845 238.775 374.846 236.301ZM370.528 241.536L368.667 240.001L371.84 236.155L373.701 237.69C375.589 239.247 375.706 239.927 374.411 241.496C373.152 243.023 372.417 243.094 370.528 241.536ZM378.938 255.542L380.396 256.745L385.213 244.851L383.019 243.042L372.259 250.033L373.717 251.236L376.173 249.645L380.033 252.829L378.938 255.542ZM377.748 248.611L382.768 245.355L382.99 245.538L380.748 251.085L377.748 248.611ZM385.395 255.501C383.94 257.265 383.552 259.348 386.079 261.432C388.606 263.517 390.463 262.878 391.574 261.531C392.433 260.49 392.798 259.227 391.345 257.679L391.528 257.457C393.119 258.442 394.114 257.886 394.961 256.859C395.843 255.789 396.117 253.845 393.867 251.99C391.34 249.905 389.369 250.683 388.029 252.307L389.417 253.453C390.448 252.203 391.292 252.199 392.722 253.378C393.875 254.329 394.031 255.158 393.458 255.852C392.622 256.866 391.905 256.858 390.475 255.678L389.725 255.06L388.58 256.448L389.33 257.067C390.76 258.246 391.182 259.178 390.3 260.247C389.498 261.219 388.655 261.223 387.224 260.044C385.794 258.864 385.638 258.035 386.783 256.646L385.395 255.501ZM406.214 262.173L396.24 265.1L396.018 264.916L401.493 258.279L400.104 257.134L392.316 266.576L393.704 267.721L403.678 264.795L403.9 264.978L398.426 271.616L399.814 272.761L407.602 263.318L406.214 262.173ZM417.564 271.535L410.371 265.602L409.226 266.991L412.128 269.385L405.485 277.439L406.874 278.584L413.517 270.53L416.419 272.924L417.564 271.535ZM425.135 280.112L426.28 278.724L420.198 273.707L412.41 283.15L418.492 288.166L419.637 286.778L414.944 282.906L417.234 280.129L420.817 283.084L421.962 281.696L418.38 278.741L420.441 276.241L425.135 280.112ZM436.97 287.541L430.694 282.364L429.548 283.752C426.605 287.321 423.94 290.326 422.426 289.078L421.281 290.466C424.183 292.86 427.804 288.753 430.951 284.909L434.436 287.784L427.793 295.838L429.182 296.983L436.97 287.541ZM440.261 296.555L438.192 294.848L441.284 291.099L439.896 289.954L432.108 299.396L435.565 302.248C437.815 304.104 439.729 303.396 440.954 301.91C442.18 300.424 442.511 298.41 440.261 296.555ZM436.71 300.86L434.641 299.153L437.047 296.237L439.116 297.944C440.268 298.894 440.482 299.654 439.566 300.764C438.649 301.875 437.863 301.81 436.71 300.86ZM455.411 302.751L451.975 306.917L447.268 303.034L450.704 298.869L449.315 297.723L441.527 307.166L442.916 308.311L446.123 304.423L450.83 308.306L447.623 312.194L449.012 313.339L456.8 303.896L455.411 302.751ZM456.402 319.434C459.29 321.816 462.73 321.154 464.906 318.515C467.082 315.877 467.078 312.374 464.19 309.992C461.302 307.609 457.862 308.272 455.686 310.91C453.51 313.549 453.513 317.052 456.402 319.434ZM457.547 318.046C455.686 316.511 455.001 314.569 457.074 312.056C459.147 309.542 461.184 309.846 463.045 311.38C464.891 312.904 465.59 314.857 463.517 317.37C461.444 319.883 459.394 319.569 457.547 318.046ZM476.516 322.492L477.661 321.103L471.579 316.086L463.791 325.529L469.873 330.545L471.019 329.157L466.325 325.286L468.616 322.508L472.198 325.463L473.344 324.075L469.761 321.12L471.823 318.62L476.516 322.492ZM493.078 333.818L483.104 336.745L482.882 336.562L488.357 329.924L486.968 328.779L479.18 338.221L480.568 339.367L490.542 336.44L490.764 336.623L485.29 343.261L486.678 344.406L494.466 334.964L493.078 333.818ZM493.352 341.977C491.405 344.338 490.624 347.661 493.651 350.157C496.234 352.288 498.916 351.723 500.603 349.848L499.214 348.703C497.741 350.008 496.685 350.327 494.797 348.769C492.797 347.12 492.782 345.497 494.74 343.123C496.699 340.748 498.294 340.454 500.294 342.104C502.183 343.661 502.071 344.759 501.07 346.453L502.458 347.599C503.978 345.586 504.022 342.845 501.439 340.715C498.412 338.218 495.299 339.617 493.352 341.977ZM505.964 360.313L507.644 361.699L508.334 354.101C510.556 354.208 512.135 351.87 513.731 353.187L514.877 351.798C511.711 349.187 509.153 353.844 506.737 351.851L506.418 351.587L509.739 347.56L508.35 346.415L500.562 355.858L501.951 357.003L505.272 352.976L506.536 354.018L505.964 360.313ZM522.338 357.952L519.704 361.146C518.559 362.535 517.715 362.539 516.493 361.531C515.271 360.523 515.115 359.694 516.26 358.306L518.895 355.112L517.506 353.967L514.872 357.16C513.417 358.924 513.029 361.007 515.14 362.748C515.973 363.435 516.962 363.621 517.757 363.507L515.695 366.006L511.807 362.799L510.662 364.188L515.939 368.54L523.727 359.098L522.338 357.952ZM522.483 366.005C520.536 368.365 519.755 371.688 522.782 374.185C525.365 376.315 528.047 375.751 529.734 373.875L528.345 372.73C526.872 374.035 525.816 374.354 523.927 372.796C521.928 371.147 521.913 369.524 523.871 367.15C525.83 364.775 527.425 364.481 529.425 366.131C531.314 367.688 531.202 368.786 530.201 370.48L531.589 371.626C533.109 369.613 533.153 366.872 530.57 364.742C527.543 362.245 524.43 363.644 522.483 366.005ZM533.445 375.046C531.498 377.407 530.717 380.73 533.745 383.226C536.327 385.357 539.01 384.792 540.696 382.917L539.308 381.772C537.835 383.077 536.778 383.395 534.89 381.838C532.89 380.189 532.875 378.566 534.834 376.192C536.792 373.817 538.388 373.523 540.387 375.173C542.276 376.73 542.164 377.828 541.163 379.522L542.552 380.667C544.072 378.655 544.116 375.914 541.533 373.784C538.506 371.287 535.392 372.686 533.445 375.046ZM554.806 384.732L547.613 378.799L546.468 380.188L549.37 382.581L542.727 390.635L544.116 391.781L550.759 383.727L553.661 386.12L554.806 384.732ZM558.189 395.105L558.372 394.883C559.921 395.834 560.969 395.298 561.714 394.396C562.653 393.257 562.869 391.382 560.897 389.756L557.44 386.904L549.652 396.347L553.109 399.198C555.387 401.077 557.215 400.415 558.326 399.068C559.277 397.916 559.642 396.653 558.189 395.105ZM557.683 389.438L559.752 391.144C560.794 392.003 560.841 392.626 560.153 393.459C559.466 394.292 558.847 394.364 557.805 393.505L555.736 391.799L557.683 389.438ZM554.255 397.81L552.186 396.103L554.591 393.187L556.66 394.894C557.91 395.925 558.026 396.604 557.11 397.715C556.193 398.826 555.504 398.841 554.255 397.81ZM563.251 407.564C566.14 409.946 569.58 409.283 571.756 406.645C573.932 404.007 573.928 400.503 571.04 398.121C568.151 395.739 564.711 396.402 562.535 399.04C560.359 401.678 560.363 405.181 563.251 407.564ZM564.397 406.175C562.536 404.64 561.851 402.699 563.924 400.185C565.997 397.672 568.034 397.975 569.894 399.51C571.741 401.033 572.44 402.986 570.367 405.5C568.294 408.013 566.244 407.698 564.397 406.175Z" fill="black"/>
<rect x="0.375" y="143.375" width="183.25" height="50.25" fill="#72CA7C"/>
<rect x="0.375" y="143.375" width="183.25" height="50.25" stroke="black" stroke-width="0.75"/>
<path d="M37.672 163.76L33.01 173.228H32.722L28.06 163.76H26.26V176H28.06V168.404H28.348L31.57 174.992H34.162L37.384 168.404H37.672V176H39.472V163.76H37.672ZM51.7255 176H53.6155L49.7635 163.76H46.9195L43.0675 176H44.9575L45.8395 173.21H50.8435L51.7255 176ZM46.3975 171.41L48.1975 165.704H48.4855L50.2855 171.41H46.3975ZM64.1935 163.76H54.8695V165.56H58.6315V176H60.4315V165.56H64.1935V163.76ZM75.4913 165.56V163.76H67.6073V176H75.4913V174.2H69.4073V170.6H74.0513V168.8H69.4073V165.56H75.4913ZM90.6982 163.76L86.0362 173.228H85.7482L81.0862 163.76H79.2862V176H81.0862V168.404H81.3742L84.5962 174.992H87.1882L90.4102 168.404H90.6982V176H92.4982V163.76H90.6982ZM104.752 176H106.642L102.79 163.76H99.9457L96.0937 176H97.9837L98.8657 173.21H103.87L104.752 176ZM99.4237 171.41L101.224 165.704H101.512L103.312 171.41H99.4237ZM117.22 163.76H107.896V165.56H111.658V176H113.458V165.56H117.22V163.76ZM128.553 163.76L122.721 172.364H122.433V163.76H120.633V176H122.433L128.265 167.396H128.553V176H130.353V163.76H128.553ZM141.494 176H143.672L139.37 169.7C141.152 168.368 140.882 165.56 142.952 165.56V163.76C138.848 163.76 139.838 168.98 136.706 168.98H136.292V163.76H134.492V176H136.292V170.78H137.93L141.494 176ZM155.387 176H157.277L153.425 163.76H150.581L146.729 176H148.619L149.501 173.21H154.505L155.387 176ZM150.059 171.41L151.859 165.704H152.147L153.947 171.41H150.059Z" fill="black"/>
<rect x="363.375" y="96.375" width="203.25" height="50.25" fill="#72CA7C"/>
<rect x="363.375" y="96.375" width="203.25" height="50.25" stroke="black" stroke-width="0.75"/>
<path d="M393.472 116.76H389.26V129H391.06V125.346H393.472C397.36 125.346 398.242 123.618 398.242 121.044C398.242 118.47 397.36 116.76 393.472 116.76ZM393.472 123.546H391.06V118.56H393.472C395.92 118.56 396.442 119.01 396.442 121.044C396.442 123.024 395.92 123.546 393.472 123.546ZM407.919 116.76V120.9C407.919 122.7 407.271 123.24 405.687 123.24C404.103 123.24 403.455 122.7 403.455 120.9V116.76H401.655V120.9C401.655 123.186 402.681 125.04 405.417 125.04C406.497 125.04 407.379 124.554 407.919 123.96V127.2H402.879V129H409.719V116.76H407.919ZM413.154 122.88C413.154 125.94 414.666 129 418.59 129C421.938 129 423.648 126.858 423.756 124.338H421.956C421.65 126.282 421.038 127.2 418.59 127.2C415.998 127.2 414.954 125.958 414.954 122.88C414.954 119.802 415.998 118.56 418.59 118.56C421.038 118.56 421.65 119.478 421.956 121.422H423.756C423.648 118.902 421.938 116.76 418.59 116.76C414.666 116.76 413.154 119.82 413.154 122.88ZM427.364 122.88C427.364 125.94 428.876 129 432.8 129C436.148 129 437.858 126.858 437.966 124.338H436.166C435.86 126.282 435.248 127.2 432.8 127.2C430.208 127.2 429.164 125.958 429.164 122.88C429.164 119.802 430.208 118.56 432.8 118.56C435.248 118.56 435.86 119.478 436.166 121.422H437.966C437.858 118.902 436.148 116.76 432.8 116.76C428.876 116.76 427.364 119.82 427.364 122.88ZM448.761 129H450.939L446.637 122.7C448.419 121.368 448.149 118.56 450.219 118.56V116.76C446.115 116.76 447.105 121.98 443.973 121.98H443.559V116.76H441.759V129H443.559V123.78H445.197L448.761 129ZM462.448 116.76L456.616 125.364H456.328V116.76H454.528V129H456.328L462.16 120.396H462.448V129H464.248V116.76H462.448ZM473.066 114.96C474.416 114.96 475.676 114.384 475.676 112.26H474.236C474.236 113.34 473.696 113.52 473.066 113.52C472.436 113.52 471.896 113.34 471.896 112.26H470.456C470.456 114.42 471.716 114.96 473.066 114.96ZM476.306 116.76L470.474 125.364H470.186V116.76H468.386V129H470.186L476.018 120.396H476.306V129H478.106V116.76H476.306ZM495.108 116.76C491.22 116.76 490.338 118.47 490.338 120.684C490.338 122.664 491.04 123.654 493.74 123.852V124.14H490.158V129H491.958V124.986H497.34V129H499.14V116.76H495.108ZM497.34 123.186H495.108C492.66 123.186 492.138 122.664 492.138 120.864C492.138 119.01 492.66 118.56 495.108 118.56H497.34V123.186ZM503.102 124.86C503.102 127.146 504.128 129 507.404 129C510.68 129 511.706 127.326 511.706 125.58C511.706 124.23 511.184 123.024 509.078 122.754V122.466C510.932 122.214 511.346 121.152 511.346 119.82C511.346 118.434 510.32 116.76 507.404 116.76C504.128 116.76 503.102 118.614 503.102 120.72H504.902C504.902 119.1 505.55 118.56 507.404 118.56C508.898 118.56 509.546 119.1 509.546 120C509.546 121.314 508.988 121.764 507.134 121.764H506.162V123.564H507.134C508.988 123.564 509.906 124.014 509.906 125.4C509.906 126.66 509.258 127.2 507.404 127.2C505.55 127.2 504.902 126.66 504.902 124.86H503.102ZM519.791 121.62H517.109V116.76H515.309V129H519.791C522.707 129 523.733 127.236 523.733 125.31C523.733 123.384 522.707 121.62 519.791 121.62ZM525.569 116.76V129H527.369V116.76H525.569ZM519.791 127.2H517.109V123.42H519.791C521.285 123.42 521.933 123.87 521.933 125.31C521.933 126.75 521.285 127.2 519.791 127.2ZM538.335 129H540.513L536.211 122.7C537.993 121.368 537.723 118.56 539.793 118.56V116.76C535.689 116.76 536.679 121.98 533.547 121.98H533.133V116.76H531.333V129H533.133V123.78H534.771L538.335 129Z" fill="black"/>
<rect x="533.724" y="200.616" width="209.25" height="50.25" transform="rotate(-17.2046 533.724 200.616)" fill="#72CA7C"/>
<rect x="533.724" y="200.616" width="209.25" height="50.25" transform="rotate(-17.2046 533.724 200.616)" stroke="black" stroke-width="0.75"/>
<path d="M568.504 211.187L564.481 212.432L568.101 224.125L569.82 223.592L568.74 220.102L571.044 219.388C574.758 218.238 575.089 216.327 574.328 213.868C573.566 211.409 572.218 210.037 568.504 211.187ZM570.511 217.669L568.207 218.382L566.732 213.619L569.037 212.906C571.375 212.182 572.007 212.457 572.608 214.4C573.194 216.292 572.85 216.945 570.511 217.669ZM586.835 218.324L588.641 217.765L581.341 207.212L578.624 208.053L578.565 220.885L580.37 220.326L580.388 217.4L585.168 215.92L586.835 218.324ZM580.388 215.515L580.42 209.532L580.695 209.447L584.102 214.365L580.388 215.515ZM590.344 212.904C591.02 215.087 592.548 216.555 595.678 215.586C598.807 214.617 599.292 212.714 598.776 211.046C598.376 209.757 597.521 208.759 595.429 209.124L595.344 208.849C597.041 208.06 597.122 206.923 596.728 205.651C596.318 204.327 594.843 203.031 592.057 203.894C588.928 204.863 588.496 206.937 589.119 208.949L590.839 208.416C590.359 206.869 590.819 206.161 592.59 205.613C594.017 205.171 594.796 205.495 595.062 206.355C595.45 207.61 595.051 208.205 593.28 208.754L592.351 209.041L592.883 210.76L593.812 210.473C595.583 209.925 596.593 210.083 597.003 211.407C597.376 212.611 596.916 213.318 595.145 213.866C593.374 214.415 592.596 214.091 592.063 212.371L590.344 212.904ZM607.047 205.376L606.962 205.101C608.607 204.328 608.734 203.158 608.388 202.04C607.952 200.63 606.503 199.421 604.061 200.177L599.78 201.502L603.4 213.195L607.682 211.869C610.502 210.996 610.952 209.104 610.436 207.436C609.994 206.009 609.138 205.011 607.047 205.376ZM602.032 202.689L604.594 201.896C605.883 201.497 606.429 201.799 606.749 202.831C607.068 203.862 606.788 204.42 605.499 204.819L602.937 205.612L602.032 202.689ZM607.149 210.15L604.587 210.943L603.469 207.332L606.031 206.539C607.579 206.059 608.21 206.335 608.636 207.711C609.062 209.086 608.697 209.67 607.149 210.15ZM619.006 195.549L615.979 205.493L615.704 205.579L613.159 197.36L611.44 197.892L615.06 209.584L616.78 209.052L619.806 199.108L620.081 199.023L622.626 207.242L624.345 206.709L620.725 195.017L619.006 195.549ZM633.061 191.197L624.154 193.955L624.686 195.675L628.28 194.562L631.368 204.535L633.087 204.002L629.999 194.03L633.593 192.917L633.061 191.197ZM643.887 187.845L640.861 197.789L640.586 197.874L638.041 189.655L636.322 190.188L639.942 201.88L641.662 201.347L644.688 191.403L644.963 191.318L647.508 199.537L649.227 199.005L645.607 187.313L643.887 187.845ZM657.624 185.476L657.091 183.756L649.56 186.088L653.181 197.781L660.712 195.449L660.179 193.729L654.368 195.529L653.303 192.09L657.739 190.716L657.207 188.997L652.77 190.37L651.812 187.275L657.624 185.476ZM672.639 178.942L668.615 180.188L672.236 191.88L673.955 191.348L672.874 187.858L675.178 187.144C678.892 185.994 679.224 184.083 678.463 181.624C677.701 179.165 676.353 177.792 672.639 178.942ZM674.646 185.425L672.342 186.138L670.867 181.375L673.171 180.662C675.51 179.938 676.141 180.213 676.743 182.156C677.329 184.048 676.984 184.701 674.646 185.425ZM688.692 175.856L688.159 174.137L680.628 176.469L684.248 188.161L691.78 185.829L691.247 184.109L685.435 185.909L684.371 182.47L688.807 181.096L688.274 179.377L683.838 180.751L682.88 177.656L688.692 175.856ZM699.255 170.701L700.906 176.031L697.931 176.952C695.111 177.825 694.606 176.682 693.323 172.538L691.604 173.07C692.881 177.197 694.199 179.992 698.463 178.672L701.438 177.751L702.876 182.393L704.595 181.861L700.975 170.168L699.255 170.701ZM712.32 166.656L709.294 176.6L709.019 176.685L706.474 168.466L704.754 168.998L708.375 180.69L710.094 180.158L713.12 170.214L713.395 170.129L715.94 178.348L717.66 177.815L714.039 166.123L712.32 166.656Z" fill="black"/>
<rect x="50.8747" y="189.477" width="323.25" height="50.25" transform="rotate(19.0454 50.8747 189.477)" fill="#72CA7C"/>
<rect x="50.8747" y="189.477" width="323.25" height="50.25" transform="rotate(19.0454 50.8747 189.477)" stroke="black" stroke-width="0.75"/>
<path d="M66.3535 222.86C65.3549 225.753 65.7857 229.139 69.4949 230.419C72.6596 231.512 74.975 230.045 75.8994 227.698L74.1979 227.111C73.2743 228.848 72.3962 229.516 70.0822 228.718C67.6321 227.872 67.0505 226.357 68.0549 223.448C69.0594 220.538 70.4515 219.705 72.9016 220.551C75.2156 221.349 75.4945 222.417 75.1494 224.354L76.8509 224.942C77.5711 222.524 76.6537 219.942 73.489 218.849C69.7798 217.569 67.352 219.968 66.3535 222.86ZM90.0862 235.623L88.0444 234.918L91.4512 225.05L89.7497 224.463L86.3429 234.331L80.0815 232.17L83.4883 222.301L81.7868 221.714L77.7927 233.284L87.7973 236.737L86.8575 239.46L88.559 240.047L90.0862 235.623ZM104.099 231.32L104.686 229.619L97.2336 227.046L93.2395 238.616L100.692 241.189L101.279 239.487L95.5283 237.502L96.7031 234.099L101.093 235.614L101.68 233.913L97.2905 232.398L98.3477 229.335L104.099 231.32ZM115.743 233.436L113.981 238.54L108.213 236.549L109.975 231.444L108.273 230.857L104.279 242.427L105.981 243.014L107.625 238.25L113.393 240.242L111.749 245.006L113.45 245.593L117.444 234.023L115.743 233.436ZM128.843 237.958L120.523 244.188L120.25 244.094L123.058 235.961L121.357 235.374L117.362 246.944L119.064 247.531L127.384 241.301L127.657 241.395L124.849 249.528L126.55 250.115L130.545 238.545L128.843 237.958ZM141.517 242.333L139.696 247.608L136.753 246.592C133.962 245.628 134.231 244.407 135.647 240.307L133.945 239.72C132.536 243.803 131.946 246.837 136.165 248.293L139.109 249.309L137.523 253.903L139.224 254.491L143.218 242.921L141.517 242.333ZM153.823 248.486L154.411 246.784L146.958 244.212L142.964 255.782L150.417 258.354L151.004 256.653L145.253 254.668L146.428 251.265L150.818 252.78L151.405 251.079L147.015 249.563L148.072 246.501L153.823 248.486ZM155.146 253.513C154.147 256.405 154.578 259.791 158.287 261.071C161.452 262.164 163.767 260.697 164.691 258.35L162.99 257.763C162.066 259.501 161.188 260.169 158.874 259.37C156.424 258.524 155.843 257.009 156.847 254.1C157.851 251.19 159.244 250.357 161.694 251.203C164.008 252.002 164.287 253.069 163.941 255.007L165.643 255.594C166.363 253.177 165.446 250.594 162.281 249.501C158.572 248.221 156.144 250.62 155.146 253.513ZM173.374 266.28L175.432 266.99L173.422 259.631C175.541 258.954 176.202 256.211 178.159 256.887L178.746 255.185C174.867 253.846 174.099 259.103 171.138 258.081L170.747 257.946L172.451 253.012L170.749 252.425L166.755 263.995L168.456 264.582L170.16 259.648L171.708 260.182L173.374 266.28ZM183.12 269.644C186.659 270.866 189.65 269.042 190.766 265.809C191.882 262.576 190.653 259.296 187.114 258.074C183.575 256.852 180.584 258.676 179.468 261.909C178.352 265.142 179.581 268.422 183.12 269.644ZM183.707 267.943C181.427 267.155 180.106 265.576 181.169 262.496C182.233 259.417 184.246 258.988 186.526 259.775C188.789 260.557 190.127 262.142 189.064 265.222C188.001 268.301 185.97 268.724 183.707 267.943ZM203.033 265.474L203.62 263.772L196.168 261.2L192.174 272.77L199.626 275.342L200.214 273.641L194.463 271.656L195.638 268.253L200.027 269.768L200.615 268.067L196.225 266.551L197.282 263.489L203.033 265.474ZM222.51 270.293L214.19 276.523L213.918 276.429L216.725 268.296L215.024 267.709L211.03 279.279L212.731 279.866L221.052 273.636L221.324 273.73L218.516 281.863L220.218 282.451L224.212 270.881L222.51 270.293ZM225.62 277.841C224.622 280.734 225.052 284.12 228.762 285.4C231.926 286.493 234.242 285.026 235.166 282.679L233.465 282.092C232.541 283.83 231.663 284.498 229.349 283.699C226.899 282.853 226.317 281.338 227.322 278.429C228.326 275.519 229.718 274.686 232.168 275.532C234.482 276.331 234.761 277.398 234.416 279.335L236.118 279.923C236.838 277.506 235.92 274.923 232.756 273.83C229.047 272.55 226.619 274.949 225.62 277.841ZM243.848 290.608L245.907 291.319L243.896 283.96C246.015 283.283 246.677 280.54 248.633 281.216L249.221 279.514C245.341 278.175 244.574 283.432 241.613 282.41L241.222 282.275L242.925 277.341L241.224 276.754L237.23 288.324L238.931 288.911L240.634 283.977L242.183 284.511L243.848 290.608ZM258.363 282.67L257.012 286.584C256.425 288.285 255.636 288.584 254.139 288.067C252.642 287.55 252.205 286.828 252.793 285.127L254.144 281.214L252.442 280.626L251.091 284.54C250.345 286.701 250.71 288.788 253.296 289.681C254.317 290.033 255.309 289.861 256.014 289.476L254.956 292.539L250.192 290.894L249.605 292.596L256.071 294.828L260.065 283.258L258.363 282.67ZM261.315 290.164C260.316 293.056 260.747 296.442 264.456 297.722C267.621 298.815 269.936 297.348 270.86 295.001L269.159 294.414C268.235 296.152 267.357 296.82 265.043 296.021C262.593 295.175 262.012 293.66 263.016 290.751C264.02 287.841 265.413 287.008 267.863 287.854C270.177 288.653 270.456 289.72 270.11 291.658L271.812 292.245C272.532 289.828 271.615 287.245 268.45 286.152C264.741 284.872 262.313 287.271 261.315 290.164ZM274.747 294.801C273.748 297.693 274.179 301.079 277.888 302.359C281.053 303.452 283.368 301.985 284.293 299.638L282.591 299.051C281.668 300.789 280.79 301.457 278.476 300.658C276.025 299.812 275.444 298.297 276.448 295.388C277.453 292.478 278.845 291.645 281.295 292.491C283.609 293.29 283.888 294.357 283.543 296.295L285.244 296.882C285.964 294.465 285.047 291.882 281.882 290.789C278.173 289.509 275.745 291.908 274.747 294.801ZM298.146 296.404L289.333 293.361L288.745 295.063L292.301 296.291L288.895 306.159L290.596 306.746L294.003 296.878L297.559 298.105L298.146 296.404ZM304.943 304.939L305.037 304.667C306.821 305.016 307.616 304.148 307.997 303.042C308.479 301.647 308.026 299.815 305.61 298.981L301.373 297.518L297.379 309.088L301.616 310.551C304.406 311.514 305.888 310.255 306.458 308.604C306.946 307.192 306.846 305.882 304.943 304.939ZM302.487 299.807L305.023 300.682C306.299 301.123 306.56 301.689 306.208 302.71C305.855 303.731 305.3 304.015 304.024 303.575L301.489 302.699L302.487 299.807ZM302.203 308.849L299.668 307.974L300.901 304.401L303.437 305.276C304.968 305.805 305.315 306.4 304.845 307.762C304.375 309.123 303.735 309.378 302.203 308.849ZM314.043 314.841C317.582 316.062 320.573 314.238 321.689 311.006C322.805 307.773 321.576 304.492 318.037 303.271C314.498 302.049 311.507 303.873 310.391 307.106C309.275 310.338 310.504 313.619 314.043 314.841ZM314.63 313.139C312.35 312.352 311.03 310.773 312.093 307.693C313.156 304.613 315.17 304.185 317.45 304.972C319.713 305.753 321.051 307.339 319.988 310.418C318.924 313.498 316.893 313.92 314.63 313.139Z" fill="black"/>
<rect x="255.375" y="244.625" width="244.25" height="50.25" transform="rotate(-90 255.375 244.625)" fill="#72CA7C"/>
<rect x="255.375" y="244.625" width="244.25" height="50.25" transform="rotate(-90 255.375 244.625)" stroke="black" stroke-width="0.75"/>
<path d="M288 210.262L288 208.372L275.76 212.224L275.76 215.068L288 218.92L288 217.03L285.21 216.148L285.21 211.144L288 210.262ZM283.41 215.59L277.704 213.79L277.704 213.502L283.41 211.702L283.41 215.59ZM275.76 197.05L281.16 197.05L281.16 203.152L275.76 203.152L275.76 204.952L288 204.952L288 203.152L282.96 203.152L282.96 197.05L288 197.05L288 195.25L275.76 195.25L275.76 197.05ZM275.76 183.695L275.76 191.111L288 191.111L288 189.311L277.56 189.311L277.56 183.695L275.76 183.695ZM275.76 172.551L275.76 180.687L277.56 180.687C282.186 180.687 286.2 180.831 286.2 182.793L288 182.793C288 179.031 282.528 178.851 277.56 178.869L277.56 174.351L288 174.351L288 172.551L275.76 172.551ZM275.76 160.659L284.364 166.491L284.364 166.779L275.76 166.779L275.76 168.579L288 168.579L288 166.779L279.396 160.947L279.396 160.659L288 160.659L288 158.859L275.76 158.859L275.76 160.659ZM273.96 150.04C273.96 148.69 273.384 147.43 271.26 147.43L271.26 148.87C272.34 148.87 272.52 149.41 272.52 150.04C272.52 150.67 272.34 151.21 271.26 151.21L271.26 152.65C273.42 152.65 273.96 151.39 273.96 150.04ZM275.76 146.8L284.364 152.632L284.364 152.92L275.76 152.92L275.76 154.72L288 154.72L288 152.92L279.396 147.088L279.396 146.8L288 146.8L288 145L275.76 145L275.76 146.8ZM281.88 141.398C284.94 141.398 288 139.886 288 135.962C288 132.614 285.858 130.904 283.338 130.796L283.338 132.596C285.282 132.902 286.2 133.514 286.2 135.962C286.2 138.554 284.958 139.598 281.88 139.598C278.802 139.598 277.56 138.554 277.56 135.962C277.56 133.514 278.478 132.902 280.422 132.596L280.422 130.796C277.902 130.904 275.76 132.614 275.76 135.962C275.76 139.886 278.82 141.398 281.88 141.398ZM288 120.001L288 117.823L281.7 122.125C280.368 120.343 277.56 120.613 277.56 118.543L275.76 118.543C275.76 122.647 280.98 121.657 280.98 124.789L280.98 125.203L275.76 125.203L275.76 127.003L288 127.003L288 125.203L282.78 125.203L282.78 123.565L288 120.001ZM275.76 106.315L284.364 112.147L284.364 112.435L275.76 112.435L275.76 114.235L288 114.235L288 112.435L279.396 106.603L279.396 106.315L288 106.315L288 104.515L275.76 104.515L275.76 106.315ZM273.96 95.6959C273.96 94.3459 273.384 93.0859 271.26 93.0859L271.26 94.5259C272.34 94.5259 272.52 95.0659 272.52 95.6959C272.52 96.3259 272.34 96.8659 271.26 96.8659L271.26 98.3059C273.42 98.3059 273.96 97.0459 273.96 95.6959ZM275.76 92.4559L284.364 98.2879L284.364 98.5759L275.76 98.5759L275.76 100.376L288 100.376L288 98.5759L279.396 92.7439L279.396 92.4559L288 92.4559L288 90.6559L275.76 90.6559L275.76 92.4559ZM275.76 73.6544C275.76 77.5424 277.47 78.4244 279.684 78.4244C281.664 78.4244 282.654 77.7224 282.852 75.0224L283.14 75.0224L283.14 78.6044L288 78.6044L288 76.8044L283.986 76.8044L283.986 71.4224L288 71.4224L288 69.6224L275.76 69.6224L275.76 73.6544ZM282.186 71.4224L282.186 73.6544C282.186 76.1024 281.664 76.6244 279.864 76.6244C278.01 76.6244 277.56 76.1024 277.56 73.6544L277.56 71.4224L282.186 71.4224ZM283.86 65.6598C286.146 65.6598 288 64.6338 288 61.3578C288 58.0818 286.326 57.0558 284.58 57.0558C283.23 57.0558 282.024 57.5778 281.754 59.6838L281.466 59.6838C281.214 57.8298 280.152 57.4158 278.82 57.4158C277.434 57.4158 275.76 58.4418 275.76 61.3578C275.76 64.6338 277.614 65.6598 279.72 65.6598L279.72 63.8598C278.1 63.8598 277.56 63.2118 277.56 61.3578C277.56 59.8638 278.1 59.2158 279 59.2158C280.314 59.2158 280.764 59.7738 280.764 61.6278L280.764 62.5998L282.564 62.5998L282.564 61.6278C282.564 59.7738 283.014 58.8558 284.4 58.8558C285.66 58.8558 286.2 59.5038 286.2 61.3578C286.2 63.2118 285.66 63.8598 283.86 63.8598L283.86 65.6598ZM280.62 48.9716L280.62 51.6536L275.76 51.6536L275.76 53.4536L288 53.4536L288 48.9716C288 46.0556 286.236 45.0296 284.31 45.0296C282.384 45.0296 280.62 46.0556 280.62 48.9716ZM275.76 43.1936L288 43.1936L288 41.3936L275.76 41.3936L275.76 43.1936ZM286.2 48.9716L286.2 51.6536L282.42 51.6536L282.42 48.9716C282.42 47.4776 282.87 46.8296 284.31 46.8296C285.75 46.8296 286.2 47.4776 286.2 48.9716ZM288 30.4267L288 28.2487L281.7 32.5507C280.368 30.7687 277.56 31.0387 277.56 28.9687L275.76 28.9687C275.76 33.0727 280.98 32.0827 280.98 35.2147L280.98 35.6287L275.76 35.6287L275.76 37.4287L288 37.4287L288 35.6287L282.78 35.6287L282.78 33.9907L288 30.4267Z" fill="black"/>
<rect x="666.521" y="294.605" width="288.25" height="50.25" transform="rotate(-55.6862 666.521 294.605)" fill="#72CA7C"/>
<rect x="666.521" y="294.605" width="288.25" height="50.25" transform="rotate(-55.6862 666.521 294.605)" stroke="black" stroke-width="0.75"/>
<path d="M704.382 275.287L705.398 273.799L715.51 280.701L714.494 282.189L708.222 277.908L708.059 278.148L711.678 284.523L710.221 286.657L702.965 285.61L702.802 285.85L709.074 290.131L708.058 291.619L697.946 284.717L698.962 283.229L709.418 284.715L709.577 284.483L704.382 275.287ZM711.164 265.35L712.175 263.869L722.287 270.771L718.432 276.419L716.944 275.403L719.788 271.236L717.117 269.413C717.216 269.829 717.226 270.272 717.146 270.742C717.066 271.213 716.881 271.661 716.59 272.087C716.217 272.633 715.803 273.053 715.348 273.346C714.891 273.63 714.423 273.786 713.943 273.813C713.462 273.832 712.981 273.763 712.5 273.605C712.022 273.442 711.539 273.194 711.05 272.86L707.631 270.526L708.647 269.038L712.066 271.372C712.797 271.871 713.398 272.075 713.871 271.986C714.343 271.897 714.807 271.519 715.263 270.851C715.719 270.183 715.902 269.613 715.813 269.141C715.724 268.668 715.314 268.183 714.583 267.684L711.164 265.35ZM721.007 265.303L722.023 263.815C722.758 264.317 723.367 264.512 723.847 264.4C724.328 264.288 724.832 263.845 725.361 263.071C725.876 262.316 726.123 261.704 726.103 261.236C726.085 260.763 725.812 260.346 725.285 259.986C724.728 259.607 724.213 259.525 723.74 259.74C723.264 259.948 722.756 260.449 722.214 261.243L721.664 262.048L720.176 261.033L720.726 260.227C721.245 259.467 721.493 258.874 721.472 258.448C721.454 258.017 721.171 257.615 720.624 257.242C719.831 256.7 719.031 257.02 718.225 258.201C717.7 258.97 717.464 259.597 717.517 260.08C717.574 260.558 717.936 261.025 718.604 261.481L717.588 262.969C717.225 262.722 716.912 262.458 716.648 262.179C716.383 261.892 716.17 261.565 716.008 261.199C715.841 260.83 715.748 260.447 715.728 260.051C715.711 259.649 715.785 259.203 715.95 258.712C716.114 258.222 716.377 257.713 716.737 257.185C717.054 256.72 717.394 256.336 717.759 256.031C718.118 255.723 718.465 255.505 718.799 255.379C719.129 255.249 719.461 255.178 719.796 255.166C720.131 255.153 720.438 255.192 720.716 255.283C720.993 255.366 721.253 255.49 721.495 255.655C721.79 255.856 722.033 256.061 722.224 256.27C722.411 256.475 722.559 256.715 722.67 256.989C722.779 257.255 722.813 257.558 722.772 257.899C722.726 258.237 722.603 258.61 722.402 259.019L722.634 259.177C722.975 258.793 723.317 258.505 723.66 258.313C724.007 258.117 724.342 258.016 724.665 258.01C724.989 258.004 725.293 258.052 725.578 258.154C725.861 258.248 726.153 258.398 726.453 258.602C726.753 258.807 727.011 259.037 727.228 259.291C727.445 259.545 727.617 259.844 727.745 260.186C727.871 260.521 727.933 260.882 727.93 261.271C727.923 261.656 727.831 262.093 727.653 262.582C727.474 263.062 727.206 263.564 726.849 264.087C726.489 264.614 726.111 265.044 725.714 265.376C725.312 265.705 724.919 265.933 724.534 266.061C724.149 266.188 723.753 266.237 723.347 266.209C722.936 266.176 722.542 266.084 722.163 265.932C721.784 265.78 721.399 265.571 721.007 265.303ZM727.726 249.705C728.047 249.236 728.39 248.853 728.755 248.556C729.121 248.259 729.481 248.054 729.835 247.941C730.187 247.82 730.551 247.77 730.926 247.792C731.3 247.806 731.655 247.878 731.991 248.008C732.331 248.134 732.666 248.309 732.995 248.534C733.324 248.758 733.609 249.006 733.85 249.277C734.094 249.543 734.293 249.849 734.447 250.195C734.599 250.533 734.685 250.89 734.706 251.266C734.725 251.633 734.662 252.041 734.519 252.49C734.376 252.938 734.145 253.397 733.824 253.867L731.297 257.569L721.185 250.667L722.201 249.179L726.215 251.919L727.726 249.705ZM726.967 242.196L727.983 240.708L738.095 247.609L737.079 249.097L726.967 242.196ZM732.336 252.851C732.769 252.217 732.964 251.687 732.921 251.261C732.877 250.826 732.565 250.411 731.984 250.015C731.403 249.618 730.905 249.48 730.489 249.601C730.072 249.714 729.647 250.087 729.214 250.721L727.703 252.935L730.825 255.065L732.336 252.851ZM744.277 238.551L737.959 238.548L737.032 239.906L741.344 242.849L740.329 244.337L730.216 237.435L731.232 235.947L735.544 238.89L735.777 238.549C735.965 238.273 736.085 237.993 736.137 237.709C736.187 237.417 736.182 237.14 736.119 236.878C736.061 236.61 735.967 236.337 735.838 236.058C735.71 235.779 735.566 235.5 735.408 235.222C735.254 234.939 735.099 234.656 734.945 234.373C734.794 234.086 734.664 233.788 734.555 233.479C734.449 233.166 734.382 232.854 734.353 232.543C734.327 232.228 734.365 231.892 734.466 231.535C734.566 231.171 734.74 230.807 734.988 230.444L736.476 231.46C736.291 231.731 736.189 232.009 736.172 232.295C736.149 232.578 736.191 232.844 736.297 233.094C736.403 233.343 736.538 233.62 736.7 233.922C736.866 234.22 737.033 234.504 737.203 234.776C737.375 235.043 737.527 235.355 737.658 235.714C737.788 236.065 737.859 236.412 737.873 236.755L745.506 236.751L744.277 238.551ZM752.11 227.075L749.313 226.231L746.489 230.368L748.295 232.665L747.229 234.226L739.287 224.144L740.892 221.792L753.175 225.514L752.11 227.075ZM745.318 228.888L747.508 225.68L741.781 223.952L741.622 224.184L745.318 228.888ZM748.561 209.917L758.845 222.321L757.79 223.867L747.506 211.464L748.561 209.917ZM756.344 199.153L757.832 200.169L755.712 203.276L764.336 209.162L763.32 210.65L754.696 204.764L752.575 207.871L751.087 206.855L756.344 199.153ZM772.039 197.875L769.242 197.03L766.418 201.168L768.224 203.465L767.159 205.025L759.217 194.944L760.822 192.592L773.104 196.314L772.039 197.875ZM765.247 199.688L767.437 196.479L761.71 194.752L761.552 194.984L765.247 199.688ZM769.373 180.064L770.388 178.575L780.501 185.477L779.485 186.965L775.325 184.126L771.887 189.164L776.046 192.003L775.031 193.492L764.918 186.59L765.934 185.102L770.399 188.149L773.837 183.111L769.373 180.064ZM788.227 170.96L792.096 173.601L791.081 175.089L788.7 173.464L782.734 182.205L772.622 175.303L773.638 173.815L782.262 179.701L785.993 174.234L777.368 168.348L778.384 166.86L787.008 172.746L788.227 170.96ZM788.274 160.992C788.594 160.522 788.937 160.139 789.303 159.843C789.668 159.546 790.028 159.341 790.382 159.228C790.734 159.107 791.098 159.057 791.473 159.079C791.847 159.093 792.202 159.165 792.539 159.295C792.879 159.421 793.213 159.596 793.542 159.821C793.871 160.045 794.156 160.293 794.397 160.564C794.641 160.83 794.84 161.136 794.994 161.482C795.147 161.82 795.233 162.177 795.253 162.552C795.272 162.92 795.21 163.328 795.067 163.777C794.924 164.225 794.692 164.684 794.372 165.154L791.845 168.856L781.732 161.954L782.748 160.466L786.763 163.206L788.274 160.992ZM787.514 153.482L788.53 151.994L798.643 158.896L797.627 160.384L787.514 153.482ZM792.883 164.138C793.316 163.504 793.511 162.974 793.469 162.548C793.425 162.113 793.112 161.698 792.532 161.301C791.951 160.905 791.453 160.767 791.037 160.888C790.62 161 790.195 161.374 789.762 162.008L788.251 164.222L791.372 166.352L792.883 164.138ZM794.028 143.299L804.312 155.702L803.257 157.249L792.973 144.845L794.028 143.299ZM802.317 131.794L812.429 138.696L811.414 140.184L802.789 134.298L799.058 139.764L807.683 145.651L806.667 147.139L796.555 140.237L802.317 131.794ZM810.488 123.018L807.059 128.042L809.738 129.87L812.359 126.03L813.847 127.046L811.226 130.886L814.195 132.912L817.624 127.889L819.112 128.904L814.668 135.416L804.555 128.514L809 122.003L810.488 123.018ZM815.583 112.356L816.599 110.868L826.711 117.77L825.696 119.258L821.536 116.419L818.098 121.457L822.257 124.296L821.241 125.784L811.129 118.883L812.145 117.394L816.609 120.441L820.048 115.403L815.583 112.356ZM823.396 100.91L824.411 99.4215L834.524 106.323L833.508 107.811L826.401 102.961L826.243 103.193L830.06 112.864L829.044 114.352L818.932 107.45L819.947 105.962L827.054 110.813L827.218 110.573L823.396 100.91ZM832.677 90.5077L829.248 95.5313L831.927 97.3595L834.548 93.5193L836.036 94.535L833.415 98.3752L836.384 100.402L839.813 95.3781L841.301 96.3938L836.856 102.906L826.744 96.0037L831.188 89.492L832.677 90.5077Z" fill="black"/>
<rect x="612.032" y="9.007" width="154.25" height="50.25" transform="rotate(16.9281 612.032 9.007)" fill="#72CA7C"/>
<rect x="612.032" y="9.007" width="154.25" height="50.25" transform="rotate(16.9281 612.032 9.007)" stroke="black" stroke-width="0.75"/>
<path d="M635.458 37.4451C632.255 36.4703 629.995 38.0215 629.158 40.4009L630.88 40.925C631.739 39.1543 632.592 38.4543 634.933 39.1671C637.155 39.8432 637.9 41.1048 637.382 43.4871L633.042 42.1664L632.518 43.8884L636.858 45.2091C635.961 47.4762 634.639 48.1088 632.418 47.4327C630.076 46.72 629.758 45.6635 630.031 43.7147L628.309 43.1906C627.678 45.6328 628.691 48.1799 631.894 49.1547C635.648 50.2973 637.985 47.8101 638.876 44.8827C639.767 41.9553 639.212 38.5877 635.458 37.4451ZM647.253 53.8294L649.336 54.4636L647.055 47.1839C649.148 46.4285 649.707 43.6636 651.687 44.2663L652.211 42.5443C648.285 41.3493 647.712 46.6314 644.716 45.7194L644.32 45.5989L645.84 40.6051L644.118 40.081L640.554 51.7906L642.276 52.3147L643.796 47.3209L645.363 47.7978L647.253 53.8294ZM657.116 56.8315C660.698 57.9217 663.62 55.9886 664.615 52.7167C665.611 49.4449 664.262 46.212 660.68 45.1219C657.098 44.0317 654.177 45.9648 653.181 49.2367C652.185 52.5085 653.535 55.7414 657.116 56.8315ZM657.64 55.1095C655.333 54.4072 653.955 52.8776 654.903 49.7608C655.852 46.6439 657.849 46.1416 660.156 46.8439C662.446 47.541 663.842 49.0758 662.893 52.1926C661.945 55.3095 659.931 55.8066 657.64 55.1095ZM678.427 50.5233L670.644 48.1543L670.12 49.8764C668.773 54.3019 667.466 58.1001 665.589 57.5288L665.065 59.2508C668.664 60.3462 670.429 55.1637 671.859 50.4057L676.181 51.7212L673.141 61.7089L674.863 62.233L678.427 50.5233ZM683.868 64.9737C687.45 66.0638 690.371 64.1307 691.367 60.8589C692.363 57.5871 691.014 54.3542 687.432 53.264C683.85 52.1739 680.929 54.107 679.933 57.3788C678.937 60.6506 680.286 63.8835 683.868 64.9737ZM684.392 63.2517C682.085 62.5493 680.706 61.0197 681.655 57.9029C682.604 54.7861 684.6 54.2837 686.908 54.986C689.198 55.6831 690.594 57.2179 689.645 60.3348C688.696 63.4516 686.682 63.9487 684.392 63.2517ZM703.69 58.2123L696.595 56.053L693.031 67.7627L694.753 68.2868L697.793 58.2991L703.166 59.9343L703.69 58.2123ZM714.202 61.4116L706.117 67.9447L705.842 67.8608L708.347 59.6297L706.625 59.1055L703.061 70.8152L704.783 71.3393L712.867 64.8062L713.143 64.8901L710.638 73.1213L712.36 73.6454L715.924 61.9357L714.202 61.4116ZM724.446 64.5297C720.727 63.3976 719.385 64.7767 718.74 66.8948C718.164 68.789 718.547 69.9405 721.072 70.9161L720.989 71.1916L717.562 70.1486L716.147 74.798L717.869 75.3221L719.037 71.4821L724.186 73.0491L723.018 76.8892L724.74 77.4133L728.303 65.7037L724.446 64.5297ZM724.71 71.3271L722.575 70.6772C720.233 69.9644 719.886 69.3131 720.41 67.5911C720.95 65.8174 721.58 65.5389 723.922 66.2517L726.057 66.9016L724.71 71.3271Z" fill="black"/>
</svg>
