<svg width="350" height="398" viewBox="0 0 350 398" fill="none" xmlns="http://www.w3.org/2000/svg">
<path d="M69.1609 8.83761e-06L0 57.0686L280.839 397.415L350 340.346L69.1609 8.83761e-06Z" fill="#FFE576"/>
<path d="M85.5558 20.3914L57.5996 43.4604" stroke="black" stroke-miterlimit="10"/>
<path d="M147.441 95.3879L119.484 118.457" stroke="black" stroke-miterlimit="10"/>
<path d="M209.324 170.384L181.368 193.453" stroke="black" stroke-miterlimit="10"/>
<path d="M271.209 245.38L243.252 268.449" stroke="black" stroke-miterlimit="10"/>
<path d="M333.094 320.379L305.138 343.446" stroke="black" stroke-miterlimit="10"/>
<path d="M98.2591 35.2434L83.5947 47.3452" stroke="black" stroke-miterlimit="10"/>
<path d="M110.68 50.2959L96.0156 62.3977" stroke="black" stroke-miterlimit="10"/>
<path d="M123.1 65.3481L108.436 77.45" stroke="black" stroke-miterlimit="10"/>
<path d="M135.52 80.3997L120.855 92.5015" stroke="black" stroke-miterlimit="10"/>
<path d="M159.866 109.905L145.205 122.007" stroke="black" stroke-miterlimit="10"/>
<path d="M172.284 124.958L157.622 137.059" stroke="black" stroke-miterlimit="10"/>
<path d="M184.707 140.009L170.043 152.111" stroke="black" stroke-miterlimit="10"/>
<path d="M197.128 155.061L182.464 167.163" stroke="black" stroke-miterlimit="10"/>
<path d="M221.858 185.032L207.193 197.131" stroke="black" stroke-miterlimit="10"/>
<path d="M234.277 200.084L219.613 212.183" stroke="black" stroke-miterlimit="10"/>
<path d="M246.698 215.135L232.033 227.235" stroke="black" stroke-miterlimit="10"/>
<path d="M259.117 230.187L244.453 242.286" stroke="black" stroke-miterlimit="10"/>
<path d="M281.932 257.836L267.267 269.938" stroke="black" stroke-miterlimit="10"/>
<path d="M294.353 272.888L279.691 284.99" stroke="black" stroke-miterlimit="10"/>
<path d="M306.773 287.939L292.112 300.041" stroke="black" stroke-miterlimit="10"/>
<path d="M319.194 302.991L304.529 315.093" stroke="black" stroke-miterlimit="10"/>
</svg>
