<svg width="129" height="136" viewBox="0 0 129 136" fill="none" xmlns="http://www.w3.org/2000/svg">
<path d="M78.6198 55.6945C75.3079 51.1906 73.9183 45.5567 74.756 40.0294C75.5937 34.502 78.5902 29.5328 83.0879 26.2125L64.8989 1.48608L1 48.4766L19.1843 73.2049C19.2226 73.176 19.2581 73.1461 19.2963 73.1181C23.8074 69.8297 29.4374 68.4623 34.9542 69.3153C40.471 70.1683 45.4253 73.1722 48.7325 77.6695C52.0397 82.1667 53.4304 87.7911 52.6004 93.3114C51.7704 98.8317 48.7872 103.798 44.3037 107.124C44.2654 107.152 44.2262 107.177 44.187 107.205L64.1933 134.41L128.093 87.4195L108.088 60.2168C103.578 63.5183 97.9431 64.8963 92.4187 64.0486C86.8944 63.2008 81.9319 60.1964 78.6198 55.6945Z" fill="black" stroke="#4D4D4D" stroke-miterlimit="10"/>
<path d="M44.2544 17.5497L22.5615 33.4829L85.7099 119.459L107.403 103.525L44.2544 17.5497Z" fill="white" stroke="black" stroke-miterlimit="10"/>
<path d="M64.1685 73.7276C67.7069 73.7276 70.5753 70.8592 70.5753 67.3208C70.5753 63.7825 67.7069 60.9141 64.1685 60.9141C60.6301 60.9141 57.7617 63.7825 57.7617 67.3208C57.7617 70.8592 60.6301 73.7276 64.1685 73.7276Z" fill="white" stroke="black" stroke-miterlimit="10"/>
<path d="M65.1544 60.9419L63.2148 73.6593" stroke="black" stroke-miterlimit="10"/>
</svg>
