<svg width="206" height="205" viewBox="0 0 206 205" fill="none" xmlns="http://www.w3.org/2000/svg">
<path d="M186.112 58.7621C180.925 63.9632 173.883 66.8904 166.537 66.9C159.191 66.9096 152.142 64.0007 146.941 58.8132C136.11 48.0109 133.592 29.6626 146.885 16.328C157.687 5.49695 177.154 -0.579468 204.126 1.47654C183.29 15.2247 203.525 41.3024 186.112 58.7621Z" fill="white" stroke="black" stroke-miterlimit="10"/>
<path d="M4.22215 201.166C2.19378 199.143 1.03759 196.406 1.0009 193.542C0.964214 190.677 2.04991 187.912 4.02581 185.838L129.253 54.3936L150.752 75.8344L19.5447 201.326C17.4756 203.305 14.7142 204.396 11.8509 204.367C8.98761 204.337 6.24956 203.188 4.22215 201.166Z" fill="#FFE576" stroke="black" stroke-miterlimit="10"/>
<path d="M160.273 66.2287L138.799 44.8118L129.314 54.3218L150.788 75.7388L160.273 66.2287Z" fill="white" stroke="black" stroke-miterlimit="10"/>
<path d="M169.125 4.21979C169.125 4.21979 168.015 11.3065 171.127 14.4108C174.239 17.5151 181.947 15.9015 184.934 18.8814C187.922 21.8614 185.925 24.7 189.421 28.1865C189.989 28.764 190.677 29.2092 191.436 29.4903C192.196 29.7715 193.008 29.8818 193.815 29.8132C194.372 24.4095 190.733 10.6849 204.126 1.47278C192.388 0.331154 180.541 1.26096 169.125 4.21979Z" fill="#FBE586" stroke="black" stroke-miterlimit="10"/>
<path d="M12.1748 200.941C16.3185 200.941 19.6777 197.581 19.6777 193.438C19.6777 189.294 16.3185 185.935 12.1748 185.935C8.03101 185.935 4.67188 189.294 4.67188 193.438C4.67188 197.581 8.03101 200.941 12.1748 200.941Z" fill="white" stroke="black" stroke-miterlimit="10"/>
<path d="M144.813 70.2161L97.0547 115.95" stroke="black" stroke-miterlimit="10"/>
</svg>
