<svg width="41" height="52" viewBox="0 0 41 52" fill="none" xmlns="http://www.w3.org/2000/svg">
<path d="M36.3301 8.25601C38.6099 8.25601 40.4581 6.40785 40.4581 4.12802C40.4581 1.84819 38.6099 0 36.3301 0C34.0502 0 32.2021 1.84819 32.2021 4.12802C32.2021 6.40785 34.0502 8.25601 36.3301 8.25601Z" fill="#FFE576"/>
<path d="M6.19604 15.152C9.618 15.152 12.392 12.378 12.392 8.95602C12.392 5.53407 9.618 2.76001 6.19604 2.76001C2.77409 2.76001 0 5.53407 0 8.95602C0 12.378 2.77409 15.152 6.19604 15.152Z" fill="#FFE576"/>
<path d="M28.1132 51.7791C34.0011 51.7791 38.7742 47.0059 38.7742 41.118C38.7742 35.2301 34.0011 30.457 28.1132 30.457C22.2253 30.457 17.4521 35.2301 17.4521 41.118C17.4521 47.0059 22.2253 51.7791 28.1132 51.7791Z" fill="#FFE576"/>
</svg>
